<svg xmlns="http://www.w3.org/2000/svg" width="24" height="24" fill="none" viewBox="0 0 24 24">
  <path fill="#464646" fill-rule="evenodd" d="M3 7a1 1 0 0 0-1 1v8a1 1 0 0 0 1 1h2a1 1 0 1 1 0 2H3a3 3 0 0 1-3-3V8a3 3 0 0 1 3-3h3.19a1 1 0 0 1 0 2H3Zm11-1a1 1 0 0 1 1-1h2a3 3 0 0 1 3 3v8a3 3 0 0 1-3 3h-3.19a1 1 0 1 1 0-2H17a1 1 0 0 0 1-1V8a1 1 0 0 0-1-1h-2a1 1 0 0 1-1-1Zm9 4a1 1 0 0 1 1 1v2a1 1 0 1 1-2 0v-2a1 1 0 0 1 1-1Z" clip-rule="evenodd"/>
  <path fill="#464646" fill-rule="evenodd" d="M11.555 5.168a1 1 0 0 1 .277 1.387L8.87 11H13a1 1 0 0 1 .832 1.555l-4 6a1 1 0 0 1-1.664-1.11L11.132 13H7a1 1 0 0 1-.832-1.555l4-6a1 1 0 0 1 1.387-.277Z" clip-rule="evenodd"/>
</svg>
