<svg xmlns="http://www.w3.org/2000/svg" width="24" height="24" fill="none" viewBox="0 0 24 24">
  <path fill="#464646" fill-rule="evenodd" d="M9.172 1.172A4 4 0 0 1 16 4v8a4 4 0 1 1-8 0V4a4 4 0 0 1 1.172-2.828ZM12 2a2 2 0 0 0-2 2v8a2 2 0 0 0 4 0V4a2 2 0 0 0-2-2Z" clip-rule="evenodd"/>
  <path fill="#464646" fill-rule="evenodd" d="M5 9a1 1 0 0 1 1 1v2a6 6 0 1 0 12 0v-2a1 1 0 1 1 2 0v2a8 8 0 0 1-16 0v-2a1 1 0 0 1 1-1Z" clip-rule="evenodd"/>
  <path fill="#464646" fill-rule="evenodd" d="M12 18a1 1 0 0 1 1 1v4a1 1 0 1 1-2 0v-4a1 1 0 0 1 1-1Z" clip-rule="evenodd"/>
  <path fill="#464646" fill-rule="evenodd" d="M7 23a1 1 0 0 1 1-1h8a1 1 0 1 1 0 2H8a1 1 0 0 1-1-1Z" clip-rule="evenodd"/>
</svg>
