<svg xmlns="http://www.w3.org/2000/svg" width="24" height="24" fill="none" viewBox="0 0 24 24">
  <path fill="#464646" fill-rule="evenodd" d="M18 16a2 2 0 1 0 0 4 2 2 0 0 0 0-4Zm-4 2a4 4 0 1 1 8 0 4 4 0 0 1-8 0ZM6 4a2 2 0 1 0 0 4 2 2 0 0 0 0-4ZM2 6a4 4 0 1 1 8 0 4 4 0 0 1-8 0Z" clip-rule="evenodd"/>
  <path fill="#464646" fill-rule="evenodd" d="M12 6a1 1 0 0 1 1-1h3a3 3 0 0 1 3 3v7a1 1 0 1 1-2 0V8a1 1 0 0 0-1-1h-3a1 1 0 0 1-1-1ZM6 8a1 1 0 0 1 1 1v12a1 1 0 1 1-2 0V9a1 1 0 0 1 1-1Z" clip-rule="evenodd"/>
</svg>
