<svg xmlns="http://www.w3.org/2000/svg" width="24" height="24" fill="none" viewBox="0 0 24 24">
  <path fill="#464646" fill-rule="evenodd" d="M3 9a1 1 0 0 1 1-1h16a1 1 0 1 1 0 2H4a1 1 0 0 1-1-1Zm0 6a1 1 0 0 1 1-1h16a1 1 0 1 1 0 2H4a1 1 0 0 1-1-1Z" clip-rule="evenodd"/>
  <path fill="#464646" fill-rule="evenodd" d="M10.11 2.006a1 1 0 0 1 .884 1.105l-2 18a1 1 0 0 1-1.988-.221l2-18a1 1 0 0 1 1.104-.884Zm6 0a1 1 0 0 1 .884 1.105l-2 18a1 1 0 1 1-1.988-.221l2-18a1 1 0 0 1 1.104-.884Z" clip-rule="evenodd"/>
</svg>
