<svg xmlns="http://www.w3.org/2000/svg" width="24" height="24" fill="none" viewBox="0 0 24 24">
  <path fill="#464646" fill-rule="evenodd" d="M12 11a1 1 0 1 0 0 2 1 1 0 0 0 0-2Zm-3 1a3 3 0 1 1 6 0 3 3 0 0 1-6 0ZM5.637 4.222a1 1 0 0 1 0 1.415 9 9 0 0 0 0 12.726 1 1 0 0 1-1.414 1.414 11 11 0 0 1 0-15.554 1 1 0 0 1 1.414 0Zm12.726 0a1 1 0 0 1 1.414 0 11 11 0 0 1 0 15.555 1 1 0 1 1-1.414-1.414 9 9 0 0 0 0-12.726 1 1 0 0 1 0-1.415ZM8.468 7.043a1 1 0 0 1-.001 1.414 5 5 0 0 0 0 7.075 1 1 0 1 1-1.414 1.415 7 7 0 0 1 0-9.905 1 1 0 0 1 1.415.001Zm7.065.01a1 1 0 0 1 1.414 0 7.001 7.001 0 0 1 0 9.904 1 1 0 0 1-1.414-1.415 5 5 0 0 0 0-7.075 1 1 0 0 1 0-1.414Z" clip-rule="evenodd"/>
</svg>
