<svg xmlns="http://www.w3.org/2000/svg" width="24" height="24" fill="none" viewBox="0 0 24 24">
  <path fill="#464646" fill-rule="evenodd" d="M4 3a1 1 0 0 0-1 1v4a1 1 0 0 0 1 1h16a1 1 0 0 0 1-1V4a1 1 0 0 0-1-1H4ZM1 4a3 3 0 0 1 3-3h16a3 3 0 0 1 3 3v4a3 3 0 0 1-3 3H4a3 3 0 0 1-3-3V4Zm3 11a1 1 0 0 0-1 1v4a1 1 0 0 0 1 1h16a1 1 0 0 0 1-1v-4a1 1 0 0 0-1-1H4Zm-3 1a3 3 0 0 1 3-3h16a3 3 0 0 1 3 3v4a3 3 0 0 1-3 3H4a3 3 0 0 1-3-3v-4Z" clip-rule="evenodd"/>
  <path fill="#464646" fill-rule="evenodd" d="M5 6a1 1 0 0 1 1-1h.01a1 1 0 1 1 0 2H6a1 1 0 0 1-1-1Zm0 12a1 1 0 0 1 1-1h.01a1 1 0 1 1 0 2H6a1 1 0 0 1-1-1Z" clip-rule="evenodd"/>
</svg>
