<svg xmlns="http://www.w3.org/2000/svg" width="24" height="24" fill="none" viewBox="0 0 24 24">
  <path fill="#464646" fill-rule="evenodd" d="M11.433 4.099A1 1 0 0 1 12 5v14a1 1 0 0 1-1.625.78L5.65 16H2a1 1 0 0 1-1-1V9a1 1 0 0 1 1-1h3.65l4.725-3.78a1 1 0 0 1 1.058-.121ZM10 7.08l-3.375 2.7A1 1 0 0 1 6 10H3v4h3a1 1 0 0 1 .625.22L10 16.92V7.08Zm13.707 1.213a1 1 0 0 1 0 1.414l-6 6a1 1 0 0 1-1.414-1.414l6-6a1 1 0 0 1 1.414 0Z" clip-rule="evenodd"/>
  <path fill="#464646" fill-rule="evenodd" d="M16.293 8.293a1 1 0 0 1 1.414 0l6 6a1 1 0 0 1-1.414 1.414l-6-6a1 1 0 0 1 0-1.414Z" clip-rule="evenodd"/>
</svg>
