<svg xmlns="http://www.w3.org/2000/svg" width="24" height="24" fill="none" viewBox="0 0 24 24">
  <g clip-path="url(#a)">
    <path fill="#464646" fill-rule="evenodd" d="M11.998 5a8.12 8.12 0 0 0-1.87.214 1 1 0 1 1-.456-1.948A10.12 10.12 0 0 1 12.002 3L12 4V3h.001c3.9 0 6.895 2.227 8.854 4.316a20.676 20.676 0 0 1 2.831 3.85 11.778 11.778 0 0 1 .192.354l.011.022.003.007.002.002s0 .002-.894.449l-.882-.471c-.084.157-.171.314-.26.469a18.676 18.676 0 0 0-2.463-3.314C17.605 6.774 15.101 5 12 5h-.002Zm9.86 6.998c-.517.9-1.114 1.753-1.783 2.548a1 1 0 0 0 1.53 1.288 19.505 19.505 0 0 0 2.277-3.363 1 1 0 0 0 .012-.918L23 12l-.894.448v-.002l-.007-.012-.03-.056a10.325 10.325 0 0 0-.211-.38ZM5.453 5.265a1 1 0 0 1 1.314.088l3.816 3.816.007.007 4.234 4.234.007.007 3.816 3.816a1 1 0 0 1-.1 1.502A11.07 11.07 0 0 1 12.016 21H12c-3.9 0-6.896-2.226-8.855-4.316a20.682 20.682 0 0 1-2.831-3.85 12.375 12.375 0 0 1-.192-.354l-.011-.022-.003-.007-.002-.002s0-.002.894-.449l-.894.447a1 1 0 0 1 .013-.92 19.45 19.45 0 0 1 5.334-6.262Zm-3.31 6.738a18.68 18.68 0 0 0 2.462 3.313c1.789 1.909 4.29 3.68 7.387 3.684a9.07 9.07 0 0 0 4.38-1.214l-2.322-2.322a3.993 3.993 0 0 1-3.623.32A4 4 0 0 1 8.536 9.95L5.987 7.401a17.45 17.45 0 0 0-3.844 4.602Zm7.885-.56a2 2 0 0 0 2.53 2.53l-2.53-2.53Z" clip-rule="evenodd"/>
    <path fill="#464646" fill-rule="evenodd" d="M.293.293a1 1 0 0 1 1.414 0l22 22a1 1 0 0 1-1.414 1.414l-22-22a1 1 0 0 1 0-1.414Z" clip-rule="evenodd"/>
  </g>
  <defs>
    <clipPath id="a">
      <path fill="#fff" d="M0 0h24v24H0z"/>
    </clipPath>
  </defs>
</svg>
