<svg xmlns="http://www.w3.org/2000/svg" width="24" height="24" fill="none" viewBox="0 0 24 24">
  <g clip-path="url(#a)">
    <path fill="#464646" fill-rule="evenodd" d="M.293.293a1 1 0 0 1 1.414 0l22 22a1 1 0 0 1-1.414 1.414l-22-22a1 1 0 0 1 0-1.414Z" clip-rule="evenodd"/>
    <path fill="#464646" fill-rule="evenodd" d="M8 3a1 1 0 0 1 1-1h6a1 1 0 0 1 .832.445L17.535 5H21a3 3 0 0 1 3 3v9.34a1 1 0 1 1-2 0V8a1 1 0 0 0-1-1h-4a1 1 0 0 1-.832-.445L14.465 4H9a1 1 0 0 1-1-1ZM3 7a1 1 0 0 0-1 1v11a1 1 0 0 0 1 1h15.586l-3.262-3.262a4.997 4.997 0 0 1-5.043.986 5 5 0 0 1-2.019-8.048L5.586 7H3Zm7.413 1.999L6.707 5.293A1 1 0 0 0 6 5H3a3 3 0 0 0-3 3v11a3 3 0 0 0 3 3h18a1 1 0 0 0 .707-1.707l-5.706-5.706a1.339 1.339 0 0 0-.026-.027L10.44 9.025A.978.978 0 0 0 10.413 9Zm-.733 2.095a2.996 2.996 0 0 0-.523 2.946 3 3 0 0 0 4.749 1.28L9.68 11.094Z" clip-rule="evenodd"/>
  </g>
  <defs>
    <clipPath id="a">
      <path fill="#fff" d="M0 0h24v24H0z"/>
    </clipPath>
  </defs>
</svg>
