<svg xmlns="http://www.w3.org/2000/svg" width="114" height="114" fill="none" viewBox="0 0 114 114">
  <g clip-path="url(#a)">
    <path fill="#000" d="M53.718 0c-5.666 0-10.26 4.594-10.26 10.26 0 5.666 4.594 10.26 10.26 10.26 5.666 0 10.26-4.594 10.26-10.26C63.978 4.594 59.384 0 53.718 0Zm-9.107 20.498c-.164.004-4.062.124-6.942.988l-14.838 5.041c-1.582.632-2.611 1.588-3.09 2.806l-7.566 14.263c-1.432 2.577-.825 5.689 1.478 7.415a5.876 5.876 0 0 0 4.712.908 5.856 5.856 0 0 0 3.794-2.908l6.234-11.854 7.851-3.073-5.651 17.354c-1.03 3.607-.09 6.899 2.93 9.9l17.185 12.557 5.57 19.647A5.697 5.697 0 0 0 59.97 97.4c-7.96.44-14.744.805-23.09 1.273-14.995.84-29.16 1.637-30.04 1.648A6.848 6.848 0 0 0 0 107.16 6.848 6.848 0 0 0 6.84 114h74.19a13.608 13.608 0 0 1-3.51-9.12 13.61 13.61 0 0 1 3.073-8.621c-4.059.213-11.03.612-16.495.913a5.67 5.67 0 0 0 3.148-6.737l-6.185-21.812a9.371 9.371 0 0 0-2.93-4.373l-8.71-6.76 4.515-15.056 3.024 4.934c1.183 1.776 2.94 2.792 4.827 2.792H77.52c1.687 0 3.296-.753 4.413-2.07 1.074-1.268 1.534-2.914 1.27-4.503l-.005-.035c-.557-2.777-3.04-4.792-5.905-4.792H65.158L58.43 27.903c-2.667-4.361-8.334-7.405-13.818-7.405Zm67.064 15.047a2.28 2.28 0 0 0-1.567.69L93.694 52.654a2.28 2.28 0 1 0 3.224 3.224l4.987-4.988-9.618 44.941a9.138 9.138 0 0 0-1.087-.071 9.12 9.12 0 0 0 0 18.24 9.118 9.118 0 0 0 8.675-11.914 9.123 9.123 0 0 0-3.291-4.563 2.31 2.31 0 0 0 .035-.147l11.173-52.212c.015-.067.027-.133.036-.2l5.504-5.505a2.283 2.283 0 0 0 .511-2.524 2.28 2.28 0 0 0-2.168-1.39Zm-81.5 28.184-3.3 6.385-15.047-1.14c-2.964-.228-5.7 2.05-5.928 5.015-.228 2.964 2.05 5.701 5.015 5.931 0 0 19.152 1.367 19.38 1.367 2.052 0 4.102-1.369 5.014-3.193l3.233-7.276-7.2-5.838-.192-.151-.165-.17c-.308-.31-.544-.618-.81-.93ZM6.84 104.88a2.282 2.282 0 0 1 2.28 2.28 2.282 2.282 0 0 1-2.28 2.28 2.282 2.282 0 0 1-2.28-2.28 2.282 2.282 0 0 1 2.28-2.28Z"/>
  </g>
  <defs>
    <clipPath id="a">
      <path fill="#fff" d="M0 0h114v114H0z"/>
    </clipPath>
  </defs>
</svg>
