<svg xmlns="http://www.w3.org/2000/svg" width="114" height="114" fill="none" viewBox="0 0 114 114">
  <path fill="#000" d="M104.88 6.84v44.14a95.405 95.405 0 0 1-9.827 3.854l-.273.091c-5.176 1.71-7.798 2.554-9.964 2.12-5.153-1.048-7.934-5.152-9.964-8.162-3.078-4.56-3.967-9.348-4.172-12.54-.091-1.254-1.14-2.189-2.417-2.143a2.305 2.305 0 0 0-2.143 2.417c.342 5.403 2.052 10.533 4.948 14.82 2.188 3.237 5.86 8.664 12.836 10.077a10.9 10.9 0 0 0 2.098.205c2.713 0 5.654-.957 10.214-2.462l.25-.091a98.223 98.223 0 0 0 8.414-3.192v53.466a2.287 2.287 0 0 1-2.28 2.28H88.92a2.22 2.22 0 0 1-1.003-.228c-1.003-.502-4.036-2.075-6.84-4.332-3.01-2.394-5.837-5.586-5.837-9.12V84.36c0-6.635-.844-9.416-2.143-12.882-1.003-2.736-1.733-7.136-2.12-12.494C67.692 64.5 61.468 70.68 50.16 70.68H36.48c-1.414 0-3.032.707-4.332 1.3-1.254.547-2.257.98-3.283.98-3.124 0-12.791-7.912-16.143-16.735C7.98 43.685 7.342 33.88 7 28.637l-.046-.844a49.631 49.631 0 0 1-.114-3.58c0-5.79 1.528-9.735 5.107-13.2 3.033-2.942 8.847-3.922 10.557-4.15 3.556-.48 4.605 0 6.657 1.527l.684.502c2.257 1.619 4.218 3.01 4.993 5.654.137.502.525 2.258-.433 3.671a5.01 5.01 0 0 1-.456.524 4.86 4.86 0 0 1-1.254 2.235c-.365.365-.752.661-1.163.844-.182.387-.456.73-.752 1.048-.547.548-1.277 1.05-2.098 1.3-.957 1.049-2.553 1.527-3.807 1.527-1.528 0-2.873-.592-3.853-1.573.114.433.228.89.273 1.05.57 1.458 2.143 5.403 6.247 9.21 2.622 2.44 4.446 4.766 5.769 6.931 1.687-4.514 5.586-9.142 14.41-9.142 1.322 0 2.485.182 3.465.433.41-2.394 1.619-6.772 5.039-11.127 4.674-5.973 14.432-9.872 25.034-10.054C83.7 9.416 87.005 6.84 91.2 6.84h13.68Z"/>
</svg>
