<svg xmlns="http://www.w3.org/2000/svg" width="114" height="114" fill="none" viewBox="0 0 114 114">
  <path fill="#000" d="M41.04 6.84a11.4 11.4 0 1 0 0 22.8 11.4 11.4 0 0 0 0-22.8Zm2.941 72.96H38.76v21.66c0 3.146-2.554 5.7-5.7 5.7a5.702 5.702 0 0 1-5.7-5.7V74.1c0-3.147 2.554-5.7 5.7-5.7h6.886a124.343 124.343 0 0 0 1.55 5.768c.433 1.505 1.322 3.443 2.485 5.632Zm46.966 16.026-19.96-3.992-8.752-16.047c1.407-2.073 1.988-4.695 1.331-7.317-1.958-7.831-3.773-15.239-2.473-21.885l9.587 3.575-4.074 11.61c-.976 2.275-.167 5.059 2.052 6.156a4.54 4.54 0 0 0 2.02.476 4.566 4.566 0 0 0 4.193-2.766l6.84-15.96a4.558 4.558 0 0 0-2.34-5.962L59.78 35.515a13.687 13.687 0 0 0-5.855-1.315H52.44c-4.56 0-7.706 2.344-8.846 6.908-2.834 11.332-.477 22.294 2.28 31.781 2.006 6.91 16.381 26.738 16.381 26.738a5.701 5.701 0 0 0 3.888 2.861l22.8 4.56a5.708 5.708 0 0 0 6.82-5.472c.08-2.807-2.062-5.2-4.816-5.75Z"/>
</svg>
