<svg xmlns="http://www.w3.org/2000/svg" width="114" height="114" fill="none" viewBox="0 0 114 114">
  <path fill="#000" d="M36.48 54.72V79.8h4.56V54.72h-4.56Zm-9.12 6.84v11.4h4.56v-11.4h-4.56Zm0 0v11.4h4.56v-11.4h-4.56Zm9.12-6.84V79.8h4.56V54.72h-4.56Zm-9.12 6.84v11.4h4.56v-11.4h-4.56Zm0 0v11.4h4.56v-11.4h-4.56Zm9.12-6.84V79.8h4.56V54.72h-4.56Zm0 0V79.8h4.56V54.72h-4.56Zm-9.12 6.84v11.4h4.56v-11.4h-4.56Zm0 0v11.4h4.56v-11.4h-4.56Zm9.12-6.84V79.8h4.56V54.72h-4.56Zm36.48 0V79.8h4.56V54.72h-4.56Zm-36.48 0V79.8h4.56V54.72h-4.56Zm-9.12 6.84v11.4h4.56v-11.4h-4.56Zm0 0v11.4h4.56v-11.4h-4.56Zm9.12-6.84V79.8h4.56V54.72h-4.56Zm45.6 6.84v11.4h4.56v-11.4h-4.56Zm0 0v11.4h4.56v-11.4h-4.56ZM72.96 79.8h4.56V54.72h-4.56V79.8Zm-36.48 0h4.56V54.72h-4.56V79.8Zm-9.12-6.84h4.56v-11.4h-4.56v11.4Zm83.494-29.161L58.414 2.873a2.326 2.326 0 0 0-2.828 0L3.146 43.799a2.306 2.306 0 0 0-.387 3.215 2.306 2.306 0 0 0 3.215.387L9.12 44.94v59.941a2.287 2.287 0 0 0 2.28 2.28h91.2a2.287 2.287 0 0 0 2.28-2.28V44.939l3.146 2.462c.434.32.912.479 1.414.479.684 0 1.345-.296 1.801-.866a2.307 2.307 0 0 0-.387-3.215ZM91.2 75.24a2.287 2.287 0 0 1-2.28 2.28h-6.84v4.56a2.287 2.287 0 0 1-2.28 2.28h-9.12a2.287 2.287 0 0 1-2.28-2.28v-11.4H45.6v11.4a2.287 2.287 0 0 1-2.28 2.28H34.2a2.287 2.287 0 0 1-2.28-2.28v-4.56h-6.84a2.287 2.287 0 0 1-2.28-2.28V59.28A2.287 2.287 0 0 1 25.08 57h6.84v-4.56a2.287 2.287 0 0 1 2.28-2.28h9.12a2.287 2.287 0 0 1 2.28 2.28v11.4h22.8v-11.4a2.287 2.287 0 0 1 2.28-2.28h9.12a2.287 2.287 0 0 1 2.28 2.28V57h6.84a2.287 2.287 0 0 1 2.28 2.28v15.96Zm-9.12-2.28h4.56v-11.4h-4.56v11.4Zm-9.12 6.84h4.56V54.72h-4.56V79.8Zm-36.48 0h4.56V54.72h-4.56V79.8Zm-9.12-6.84h4.56v-11.4h-4.56v11.4Zm0-11.4v11.4h4.56v-11.4h-4.56Zm9.12-6.84V79.8h4.56V54.72h-4.56Zm36.48 0V79.8h4.56V54.72h-4.56Zm-36.48 0V79.8h4.56V54.72h-4.56Zm-9.12 6.84v11.4h4.56v-11.4h-4.56Zm0 0v11.4h4.56v-11.4h-4.56Zm9.12-6.84V79.8h4.56V54.72h-4.56Zm0 0V79.8h4.56V54.72h-4.56Zm-9.12 6.84v11.4h4.56v-11.4h-4.56Zm0 0v11.4h4.56v-11.4h-4.56Zm9.12-6.84V79.8h4.56V54.72h-4.56Zm0 0V79.8h4.56V54.72h-4.56Zm-9.12 6.84v11.4h4.56v-11.4h-4.56Zm0 0v11.4h4.56v-11.4h-4.56Zm9.12-6.84V79.8h4.56V54.72h-4.56Zm-9.12 6.84v11.4h4.56v-11.4h-4.56Zm0 0v11.4h4.56v-11.4h-4.56Z"/>
</svg>
