<svg xmlns="http://www.w3.org/2000/svg" width="114" height="114" fill="none" viewBox="0 0 114 114">
  <g clip-path="url(#a)">
    <path fill="#000" d="M97.417.134a2.276 2.276 0 0 0-1.764.098A2.376 2.376 0 0 0 94.656 0H55.432c-.089 0-.178.036-.267.045-.64-.09-1.309.07-1.825.543-5.487 4.952-13.306 17.59-15.488 26.843-4.587 5.201-4.81 10.884-.713 17.848 1.407 2.378 1.701 5.157 2.04 8.381.196 1.826.392 3.705.81 5.682.66 3.02 2.013 6.012 3.313 8.907.73 1.612 1.416 3.126 1.968 4.604.66 1.781 1.408 3.66 2.165 5.558 1.817 4.569 4.079 10.26 4.89 14.32.186 2.477-.028 4.56-.838 6.013-2.797 4.969-6.706 4.088-11.373 6.074-4.908 2.102-7.998 3.01-9.85 3.357-4.72.882-4.249 1.301-4.249 2.129 0 .258.036.499.08.739.383 1.746 2.102 2.966 4.035 2.966.356 0 .73-.036 1.095-.089.9-.134 1.79-.41 2.476-.802.205.143.428.232.65.339 1.123.534 2.343.614 3.688.614 4.586 0 7.508-.142 9.592-.338 3.446-.321 4.604-.757 7.009-.864a22.09 22.09 0 0 1 1.149-.027c2.048 0 6.234 1.229 11.035 1.229 1.282 0 2.324-.258 3.18-.677 2.333-1.131 3.188-3.518 3.188-5.655 0-3.572-2.423-5.807-4.65-11.676-1.006-3.028-2.075-6.92-2.858-12.353-.107-.784-.17-1.523-.24-2.271-.037-.454-.072-.918-.108-1.372-.374-6.822 1.025-12.3 2.2-16.806.98-3.767 1.826-7.027 1.354-10.028-1.078-6.876-4.061-11.089-5.843-13.6a24.55 24.55 0 0 1-.944-1.39c.508-1.104 2.378-3.49 5.45-4.943 4.9-2.315 25.874-14.98 31.262-30.254A2.295 2.295 0 0 0 97.417.134Z"/>
  </g>
  <defs>
    <clipPath id="a">
      <path fill="#fff" d="M0 0h114v114H0z"/>
    </clipPath>
  </defs>
</svg>
