<svg xmlns="http://www.w3.org/2000/svg" width="114" height="114" fill="none" viewBox="0 0 114 114">
  <path fill="#000" d="M57 6.84c-8.817 0-15.96 7.143-15.96 15.96S48.183 38.76 57 38.76s15.96-7.143 15.96-15.96S65.817 6.84 57 6.84ZM41.04 47.88c-7.41 0-12.478 5.183-13.537 6.582-4.053 5.37-13.698 21.143-13.698 21.143-3.216 5.513-3.242 9.806 1.21 14.259l11.73 11.738a6.165 6.165 0 0 0 8.729 0 6.075 6.075 0 0 0 1.442-2.35l.704 10.188h38.76l.641-9.548c.303.74.748 1.425 1.354 2.031 2.405 2.405 6.314 2.405 8.728 0l11.881-12.06c4.453-4.452 4.426-8.745 1.211-14.258 0 0-9.645-15.773-13.697-21.143-1.06-1.399-6.128-6.582-13.538-6.582h-2.387L60.43 72.203l2.413.828c.784.258 1.185 1.078.909 1.826L59.7 85.687c-.285.748-1.14 1.131-1.924.873l-6.617-2.271c-.784-.259-1.194-1.078-.918-1.826l3.598-9.601L43.382 47.88H41.04Zm6.662 0L57 70.065l9.263-22.185H47.702ZM34.192 68.4l2.288 25.864c-.276-.49-.597-.971-1.006-1.39l-11.062-11.07 9.78-13.404Zm45.617 0 9.779 13.404-11.213 11.39c-.338.33-.615.695-.855 1.078L79.809 68.4Z"/>
</svg>
