<svg xmlns="http://www.w3.org/2000/svg" width="114" height="114" fill="none" viewBox="0 0 114 114">
  <path fill="#000" d="M102.885 45.393c.739-1.916 1.995-5.938 1.995-11.193 0-17.882-19.966-24.676-26.512-25.053h-.002C75.904 7.132 72.593 4.56 68.4 4.56H45.6c-4.193 0-7.503 2.572-9.966 4.587C29.088 9.524 9.12 16.318 9.12 34.2c0 5.255 1.256 9.277 1.995 11.193C9.717 47.812 6.84 53.988 6.84 63.84c0 .72.333 1.364.855 1.78.39.313 11.605 7.028 11.97 7.174a2.278 2.278 0 0 0 2.241-.304c1.558-1.194 2.782-2.936 3.771-4.924a29.68 29.68 0 0 1-.597-6.006v-9.12a2.28 2.28 0 1 1 4.56 0v9.12c0 2.066.221 3.673.51 5.119h.01c.102.52.216 1.044.333 1.573.07.296.141.6.214.891.379 1.528.752 3.112.873 4.946.203 1.616.34 3.463.34 5.711 0 .062-.03.114-.036.176.022.66.036 1.35.036 2.104v13.68c0 6.833 10.554 12.399 12.67 13.443.312.157.661.237 1.01.237h22.8c.349 0 .698-.08 1.01-.237 2.116-1.044 12.67-6.61 12.67-13.443V82.08c0-.755.014-1.443.037-2.104-.007-.062-.037-.114-.037-.176 0-2.248.137-4.095.34-5.711.123-1.834.495-3.418.873-4.946.073-.291.144-.593.214-.891.117-.53.23-1.053.333-1.573h.01c.289-1.446.51-3.053.51-5.119v-9.12a2.28 2.28 0 1 1 4.56 0v9.12c0 2.447-.267 4.343-.597 6.006.99 1.988 2.214 3.73 3.77 4.924a2.28 2.28 0 0 0 2.242.304c.365-.149 11.58-6.86 11.97-7.173.522-.417.855-1.06.855-1.78 0-9.853-2.877-16.03-4.275-18.448ZM54.72 56.68c0 8.279-1.553 16.491-4.678 23.979-1.567 3.75-2.794 5.98-2.794 5.98s-2.129-3.707-6.67-9.35c-2.668-3.315-3.945-8.229-4.652-10.379-.958-2.934-1.591-8.757-1.724-15.572 2.905-2.969 7.445-10.096 7.445-21.699 1.094 0 6.021 5.196 9.922 10.274 2.048 2.67 3.151 6.096 3.151 9.63v7.137Zm23.356 10.223c-.706 2.153-1.985 7.07-4.653 10.386-4.542 5.643-6.671 9.35-6.671 9.35s-1.23-2.23-2.793-5.98c-3.126-7.488-4.679-15.7-4.679-23.98v-7.136c0-3.533 1.104-6.96 3.153-9.63 3.901-5.078 8.828-10.274 9.923-10.274 0 11.603 4.54 18.73 7.444 21.699-.134 6.815-.766 12.638-1.724 15.565Z"/>
</svg>
