<svg xmlns="http://www.w3.org/2000/svg" width="114" height="114" fill="none" viewBox="0 0 114 114">
  <g clip-path="url(#a)">
    <path fill="#000" d="M57 0c-6.929 0-12.54 5.61-12.54 12.54 0 6.93 5.611 12.54 12.54 12.54 6.93 0 12.54-5.61 12.54-12.54C69.54 5.61 63.93 0 57 0Zm-9.547 29.64c-3.652 0-7.108 2.28-8.48 5.7l-14.89 33.986c-2.735 5.932 1.585 12.754 8.193 12.754h21.945l-10.26 22.586C41.913 108.995 45.075 114 50.09 114c2.511 0 5.005-1.568 5.913-3.848l14.82-31.92c2.049-4.56-1.113-9.832-6.127-9.832H48.949l13.537-29.64h35.34c2.28 0 4.32-1.567 4.774-3.847.454-2.735-1.826-5.273-4.56-5.273H47.452Z"/>
  </g>
  <defs>
    <clipPath id="a">
      <path fill="#fff" d="M0 0h114v114H0z"/>
    </clipPath>
  </defs>
</svg>
