<svg xmlns="http://www.w3.org/2000/svg" width="114" height="114" fill="none" viewBox="0 0 114 114">
  <path fill="#000" d="M57 0c-5.664 0-10.26 4.596-10.26 10.26S51.336 20.52 57 20.52s10.26-4.596 10.26-10.26S62.664 0 57 0Zm33.345 18.953c-1.487.115-2.805 1.122-3.491 2.493L86.14 22.8H27.93l-.57-1.14c-.908-1.826-3.162-2.966-4.988-2.28-2.021.552-3.161 2.592-2.92 4.56.008.09-.019.196 0 .285.07.374.177.712.355 1.069l.998 2.066 8.122 16.886c.686 1.372 2.334 1.826 3.706 1.14l13.18-6.84V59.28l-4.56 25.294c-.23 1.371.028 2.493.713 3.633l11.4 20.521c1.14 1.825 2.94 2.992 4.988 2.992.908 0 1.87-.258 2.779-.713 2.734-1.594 3.651-4.96 2.28-7.695l-1.782-3.135-8.977-15.817.57-2.28L57 66.12l6.127 13.252-4.845 5.63 5.558 9.832 9.832-9.761c1.595-1.595 2.04-3.652 1.354-5.7L68.4 59.28V38.333l13.252 6.84c1.372.685 2.948.231 3.634-1.14l9.12-18.953c.187-.374.285-.748.356-1.14.01-.045-.008-.098 0-.143.277-1.941-.801-3.883-2.85-4.63a4.194 4.194 0 0 0-1.567-.215ZM0 22.8v4.56h15.746c-.712-1.425-.962-3.001-.855-4.56H0Zm99.323 0c.07 1.47-.196 2.966-.855 4.275l-.143.285H114V22.8H99.323ZM30.21 27.36h11.542l-8.265 6.413-3.277-6.413Zm42.18 0h11.471l-3.135 6.127-8.336-6.127Z"/>
</svg>
