<svg xmlns="http://www.w3.org/2000/svg" width="114" height="114" fill="none" viewBox="0 0 114 114">
  <path fill="#000" d="M50.115 4.56c-8.763.196-15.06 2.734-18.73 7.553-4.14 5.45-4.862 13.573-2.208 24.812-.935 1.212-1.79 3.144-1.568 5.79.668 4.933 2.556 6.964 4.08 7.792.765 4.106 3.01 8.461 5.023 10.519l.026 1.487c.045 2.182.072 4.07-.213 6.493-.464 1.202-1.408 2.208-2.69 3.117l7.17 8.639 6.697-8.319c.605-.748 1.585-1.442 2.458-1.175.864-.267 1.853.427 2.458 1.175l1.514 1.88c.446.463.89 1.006 1.31 1.63l5.548 6.697 5.477-10.492c-1.255-.872-2.217-1.834-2.716-2.983-.134-2.761-.365-7.178-.365-8.176 1.977-2.084 4.07-6.448 4.943-10.403 1.639-.774 3.696-2.787 4.168-7.997.214-2.565-.49-4.445-1.46-5.665 1.504-4.72 4.06-15.194-.143-22.14-1.915-3.162-4.908-5.148-8.915-5.941-2.21-2.779-6.35-4.293-11.864-4.293Zm.045 4.56c4.31 0 7.419 1.087 8.514 2.975l.562.953 1.086.151c3.144.445 5.326 1.737 6.662 3.955 2.93 4.827 1.434 13.626-.73 19.691l-.722 1.88 1.808.908c.205.142.748.926.615 2.565-.312 3.375-1.38 4.275-1.612 4.32h-1.969l-.285 1.959c-.623 4.382-3.25 8.88-4.114 9.512l-1.15.65v1.327c0 2.36.01 4.293.072 6.44l-8.737 4.853-8.87-4.925a71.572 71.572 0 0 0 0-3.91c-.01-.784-.027-1.594-.027-2.467l-.143-1.283-.97-.676c-.9-.615-3.732-5.166-4.133-9.423l-.036-2.049h-2.066c-.33-.124-1.345-1.202-1.781-4.31-.152-1.906.82-2.699.82-2.699l1.353-.9-.4-1.558c-2.655-10.456-2.29-17.715 1.112-22.185C37.8 11.221 42.91 9.28 50.16 9.12Zm52.476 59.28a6.76 6.76 0 0 0-4.819 1.995l-.739.74-.009-.01-25.64 25.641a2.3 2.3 0 0 0-.598 1.025l-2.36 8.772a2.3 2.3 0 0 0 .597 2.209 2.292 2.292 0 0 0 1.612.668c.196 0 .4-.027.597-.071l8.772-2.36c.392-.107.74-.312 1.025-.597l25.641-25.65h-.009c.338-.347.739-.748.739-.748 2.654-2.654 2.663-6.965 0-9.619a6.755 6.755 0 0 0-4.809-1.995Zm-32.134 5.807-7.49 11.605a2.303 2.303 0 0 1-1.773.828s-1.309.116-2.2-.908l-6.02-5.576-1.719 1.399s4.052 6.786 5.175 14.205H43.862c1.15-7.267 5.157-14.134 5.157-14.134l-1.728-1.398-4.47 5.557a2.31 2.31 0 0 1-1.764.855h-.018a2.3 2.3 0 0 1-1.755-.82l-9.547-11.497c-1.38.623-2.877 1.22-4.444 1.843-8.898 3.518-19.968 7.91-20.734 21.75l-.125 2.404h54.08l7.57.045 1.531-5.389s7.98-8.122 14.606-15.247c-3.054-1.746-4.203-2.476-7.25-3.678a123.292 123.292 0 0 1-4.47-1.844Zm29.382.561 3.188 3.189-24.795 24.803-4.373 1.176 1.176-4.373 24.804-24.795Z"/>
</svg>
