<svg xmlns="http://www.w3.org/2000/svg" width="114" height="114" fill="none" viewBox="0 0 114 114">
  <g clip-path="url(#a)">
    <path fill="#000" d="M59.494 10.474c-5.923 0-10.688 4.836-10.688 10.758A10.662 10.662 0 0 0 59.494 31.92c5.922 0 10.758-4.765 10.758-10.688 0-5.922-4.836-10.758-10.758-10.758ZM85.642 23.44c-.587 0-1.21.214-1.638.641l-4.632 4.56-2.28-2.422-3.277 3.135 2.351 2.494-4.275 4.275c-.89.89-.89 2.386 0 3.277l5.629 5.558c.428.427 1.033.712 1.639.712.605 0 1.14-.285 1.567-.712L92.84 32.917c.89-.89.89-2.315 0-3.206l-5.629-5.629a2.18 2.18 0 0 0-1.567-.64Zm-27.787 12.4a9.26 9.26 0 0 0-6.769 2.92l-22.8 22.8H9.05c-5.7 0-9.975 5.273-8.835 10.973l6.27 30.068c.454 2.734 2.752 4.56 5.486 4.56 3.652 0 6.172-3.189 5.486-6.84l-5.842-27.36H22.3c-1.095 1.211-1.781 2.814-1.781 4.56 0 3.75 3.09 6.84 6.84 6.84h20.52a2.256 2.256 0 0 0 1.639-.641l23.298-23.37 3.777 1.923c.686.455 1.576.642 2.494.642 1.14 0 2.306-.455 2.992-1.14L95.76 47.88c1.594-1.826 1.594-4.533 0-6.128-1.594-1.594-4.32-1.594-5.914 0L78.874 52.654 64.766 38.76c-1.941-1.942-4.435-2.921-6.911-2.921Zm48.379 7.98c-.579 0-1.194.196-1.639.64L92.483 56.573a2.151 2.151 0 0 0-.642 1.568c0 .605.214 1.211.642 1.639l5.628 5.628c.446.446 1.051.642 1.639.642a2.14 2.14 0 0 0 1.568-.642l4.203-4.203 2.067 2.137 3.277-3.135-2.137-2.209 4.702-4.702c.427-.428.713-1.033.713-1.639 0-.605-.286-1.14-.713-1.567l-5.629-5.63a2.15 2.15 0 0 0-1.567-.64ZM63.769 55.79l4.774 2.35v.072L46.883 79.8H27.36a2.273 2.273 0 0 1-2.28-2.28 2.273 2.273 0 0 1 2.28-2.28h15.96a2.256 2.256 0 0 0 1.639-.641l18.81-18.81Z"/>
  </g>
  <defs>
    <clipPath id="a">
      <path fill="#fff" d="M0 0h114v114H0z"/>
    </clipPath>
  </defs>
</svg>
