<svg xmlns="http://www.w3.org/2000/svg" width="114" height="114" fill="none" viewBox="0 0 114 114">
  <path fill="#000" d="M21.549 9.12a12.865 12.865 0 0 0-1.746.12c-4.89.657-9.364 4.473-12.718 7.727C2.119 21.796 0 27.292.005 35.345a78.93 78.93 0 0 0 .15 5.116l.081 1.23c.522 8.093 1.396 21.634 8.225 39.614 4.61 12.134 17.164 22.34 21.669 23.464.237.077.485.115.735.111.309 0 .623-.032.944-.084 1.19-.16 2.228-.571 3.335-.971.313-.106.635-.21.962-.312.38-.121.776-.223 1.171-.329.486-.129.967-.261 1.478-.352v-.005a12.823 12.823 0 0 1 2.285-.227c3.464 0 8.44 2.28 18.24 2.28 14.303 0 23.62-8.005 29.07-15.795 3.274-4.68 5.149-9.144 6.217-12.135l.004.018c.155-.42.24-.696.36-1.05.128-.384.313-.858.401-1.15C99.77 73.25 114 67.138 114 51.3c0-13.03-8.222-26.22-23.94-26.22-17.237 0-25.485 11.896-26.167 23.504-1.767-.395-3.763-.704-5.753-.704-12.25 0-18.613 6.482-21.687 12.82-1.892-3.075-4.463-6.41-8.211-9.885-6.113-5.664-8.423-11.518-9.294-13.725-.137-.385-.554-2.146-.677-2.734.242-.228.777-.569 1.149-.806l.009-.004c1.222 1.785 3.273 2.934 5.647 2.934 1.673 0 3.836-.665 4.956-2.097 1.117-.292 2.16-.959 2.863-1.684a5.19 5.19 0 0 0 1.069-1.59 4.833 4.833 0 0 0 1.71-1.144 6.191 6.191 0 0 0 1.625-3.108 3.54 3.54 0 0 0 .73-.77c1.157-1.665.664-3.813.486-4.431-1.01-3.495-3.578-5.328-6.827-7.646-.572-.41-1.105-.83-1.63-1.243-2.19-1.717-4.644-3.633-8.51-3.647Zm69.504 64.04c-.481 1.691-2.28 7.368-6.44 13.315-4.917 7.03-12.703 13.845-25.333 13.845-9.065 0-13.154-2.28-18.24-2.28-.226 0-.434.031-.655.04 2.637-3.313 8.42-9.16 16.61-9.16 9.12 0 15.96 0 20.52-4.56 4.124-4.123 6.401-10.09 13.538-11.2Z"/>
</svg>
