<svg xmlns="http://www.w3.org/2000/svg" width="114" height="114" fill="none" viewBox="0 0 114 114">
  <path fill="#000" d="M52.44 4.56c-1.26 0-2.28 1.02-2.28 2.28v5.023c-3.885.443-7.778 1.109-9.94 1.5a4.55 4.55 0 0 0-3.74 4.485V32.32a4.542 4.542 0 0 0 3.148 4.33c1.004.328 1.412.936 1.412 2.11 0 1.354-1.221 3.164-2.516 5.081-1.927 2.857-4.324 6.417-4.324 10.88v43.32c0 6.285 5.114 11.399 11.4 11.399h22.8c6.286 0 11.4-5.114 11.4-11.4V54.72c0-4.462-2.397-8.022-4.324-10.879-1.295-1.917-2.516-3.727-2.516-5.08 0-1.175.41-1.783 1.412-2.112a4.539 4.539 0 0 0 3.148-4.328v-.4h4.56c3.75 0 6.84-3.09 6.84-6.84 0-3.752-3.09-6.84-6.84-6.84h-4.56v-.393a4.554 4.554 0 0 0-3.74-4.484c-2.164-.392-6.055-1.059-9.94-1.5V6.84c0-1.26-1.02-2.28-2.28-2.28h-9.12ZM77.52 22.8h4.56c1.288 0 2.28.992 2.28 2.28 0 1.288-.992 2.28-2.28 2.28h-4.56V22.8Zm-36.48 2.28h31.92l.004 4.16a2.281 2.281 0 0 0 0 .779v2.293c-2.9.946-4.564 3.295-4.564 6.448 0 2.748 1.597 5.12 3.29 7.633 1.745 2.585 3.55 5.258 3.55 8.327H38.76c0-3.069 1.805-5.742 3.55-8.327 1.693-2.513 3.29-4.886 3.29-7.633 0-3.153-1.662-5.5-4.56-6.44v-7.24Z"/>
</svg>
