<svg xmlns="http://www.w3.org/2000/svg" width="114" height="114" fill="none" viewBox="0 0 114 114">
  <g clip-path="url(#a)">
    <path fill="#000" d="M15.96 6.84c-1.372 0-2.28.908-2.28 2.28v4.56H0v4.56h13.68v4.56c0 1.371.908 2.28 2.28 2.28h6.84c1.372 0 2.28-.909 2.28-2.28V9.12c0-1.372-.908-2.28-2.28-2.28h-6.84Zm75.24 0c-1.372 0-2.28.908-2.28 2.28V22.8c0 1.371.908 2.28 2.28 2.28h6.84c1.372 0 2.28-.909 2.28-2.28v-4.56H114v-4.56h-13.68V9.12c0-1.372-.908-2.28-2.28-2.28H91.2Zm-63.84 6.84v4.56h59.28v-4.56H27.36Zm-11.4 27.36c-1.372 0-2.28.908-2.28 2.28v4.56H0v4.56h13.68V57c0 1.371.908 2.28 2.28 2.28h6.84c1.372 0 2.28-.909 2.28-2.28V43.32c0-1.372-.908-2.28-2.28-2.28h-6.84Zm75.24 0c-1.372 0-2.28.908-2.28 2.28V57c0 1.371.908 2.28 2.28 2.28h6.84c1.372 0 2.28-.909 2.28-2.28v-4.56H114v-4.56h-13.68v-4.56c0-1.372-.908-2.28-2.28-2.28H91.2Zm-63.84 6.84v4.56c2.912 0 5.103.944 7.374 2.048C37.014 55.593 39.366 57 42.403 57c3.046 0 5.78-1.336 8.327-2.485 2.538-1.14 4.907-2.075 6.27-2.075 1.363 0 3.874.953 6.466 2.093C66.058 55.663 68.694 57 71.597 57c2.966 0 5.273-1.398 7.562-2.503 2.298-1.113 4.569-2.057 7.481-2.057v-4.56c-3.928 0-7.018 1.336-9.45 2.502-2.44 1.176-4.23 2.058-5.593 2.058-1.21 0-3.696-.944-6.296-2.093C62.7 49.207 59.966 47.88 57 47.88s-5.61 1.345-8.15 2.485c-2.529 1.13-4.924 2.075-6.447 2.075-1.514 0-3.26-.873-5.665-2.049-2.404-1.175-5.45-2.511-9.378-2.511Zm15.96 25.08c-6.261 0-11.4 5.139-11.4 11.4v2.28h-4.56v4.56h4.56v2.28c0 6.26 5.139 11.4 11.4 11.4h27.36c6.261 0 11.4-5.14 11.4-11.4V91.2h4.56v-4.56h-4.56v-2.28c0-6.261-5.139-11.4-11.4-11.4H43.32Zm0 4.56h27.36a6.842 6.842 0 0 1 6.84 6.84v9.12a6.842 6.842 0 0 1-6.84 6.84H68.4V79.8h-4.56v20.52H50.16V79.8H45.6v20.52h-2.28a6.842 6.842 0 0 1-6.84-6.84v-9.12a6.842 6.842 0 0 1 6.84-6.84ZM15.96 79.8c-1.372 0-2.28.908-2.28 2.28v4.56H0v4.56h13.68v4.56c0 1.371.908 2.28 2.28 2.28h6.84c1.372 0 2.28-.909 2.28-2.28V82.08c0-1.372-.908-2.28-2.28-2.28h-6.84Zm75.24 0c-1.372 0-2.28.908-2.28 2.28v13.68c0 1.371.908 2.28 2.28 2.28h6.84c1.372 0 2.28-.909 2.28-2.28V91.2H114v-4.56h-13.68v-4.56c0-1.372-.908-2.28-2.28-2.28H91.2Z"/>
  </g>
  <defs>
    <clipPath id="a">
      <path fill="#fff" d="M0 0h114v114H0z"/>
    </clipPath>
  </defs>
</svg>
