<svg xmlns="http://www.w3.org/2000/svg" width="114" height="114" fill="none" viewBox="0 0 114 114">
  <path fill="#000" d="M55.86 6.84a10.26 10.26 0 1 0 0 20.52 10.26 10.26 0 0 0 0-20.52Zm-9.12 25.08c-6.927 0-12.54 5.613-12.54 12.54v28.5c0 2.52 2.04 4.56 4.56 4.56 2.52 0 4.56-2.04 4.56-4.56v-22.8a2.28 2.28 0 0 1 4.56 0V68.4h15.96V50.16a2.28 2.28 0 0 1 4.56 0v22.8c0 2.52 2.04 4.56 4.56 4.56 2.52 0 4.56-2.04 4.56-4.56v-28.5c0-6.927-5.613-12.54-12.54-12.54H46.74ZM13.644 52.409a2.28 2.28 0 0 0-2.244 2.31V68.4H9.12a2.281 2.281 0 1 0 0 4.56h2.28v13.68a2.28 2.28 0 1 0 4.56 0V71.064a2.28 2.28 0 0 0 0-.744v-15.6a2.28 2.28 0 0 0-2.316-2.31Zm9.12 0a2.28 2.28 0 0 0-2.244 2.31v31.92a2.28 2.28 0 1 0 4.56 0V72.96h4.56V68.4h-4.56V54.72a2.28 2.28 0 0 0-2.316-2.31Zm66.12 0a2.28 2.28 0 0 0-2.244 2.31V68.4h-4.56v4.56h4.56v13.68a2.28 2.28 0 1 0 4.56 0V54.72a2.28 2.28 0 0 0-2.316-2.31Zm9.12 0a2.28 2.28 0 0 0-2.244 2.31v15.578a2.28 2.28 0 0 0 0 .743v15.6a2.28 2.28 0 1 0 4.56 0V72.96h2.28a2.276 2.276 0 0 0 2.136-1.4 2.291 2.291 0 0 0 0-1.76 2.29 2.29 0 0 0-1.254-1.236 2.278 2.278 0 0 0-.882-.164h-2.28V54.72a2.283 2.283 0 0 0-2.316-2.311ZM47.88 72.959c0 4.42-3.162 8.11-7.339 8.943l-3.932 18.364a5.622 5.622 0 0 0-.129 1.194 5.7 5.7 0 0 0 4.507 5.571c.403.086.805.129 1.202.129a5.703 5.703 0 0 0 5.566-4.507L53.14 77.52h5.442l5.388 25.133a5.697 5.697 0 0 0 5.562 4.507 5.697 5.697 0 0 0 5.58-6.894L71.18 81.902c-4.177-.832-7.339-4.523-7.339-8.942H47.88Z"/>
</svg>
