<svg xmlns="http://www.w3.org/2000/svg" width="114" height="114" fill="none" viewBox="0 0 114 114">
  <g clip-path="url(#a)">
    <path fill="#000" d="M37.62 20.52c-5.664 0-10.26 4.596-10.26 10.26s4.596 10.26 10.26 10.26 10.26-4.596 10.26-10.26-4.596-10.26-10.26-10.26Zm24.367 0c-5.468 0-10.001 4.364-9.547 9.832 0 1.595.454 2.904 1.14 4.275.686 1.372 12.968 20.307 12.968 20.307L53.58 67.972c-1.594 1.595-1.8 4.089-.427 5.914.908.909 1.995 1.568 3.135 1.568 1.14 0 2.306-.454 2.992-1.14l15.96-15.96c1.372-1.372 1.835-3.393.926-4.988L70.68 41.04h25.08l-1.853 22.8c-.231 1.372-.169 2.975.285 4.346l7.268 25.721c.686 2.049 2.494 3.901 4.774 4.133 3.874.454 6.84-3.402 5.7-7.054l-6.627-23.726c-.231-.908-.231-1.585 0-2.494-.231 0 8.693-28.74 8.693-30.566v-2.28c0-6.386-5.014-11.4-11.4-11.4H61.988Zm-39.045 8.336L0 39.9v14.392l27.146-13.038C24.474 38.573 22.8 34.859 22.8 30.78c0-.641.062-1.3.142-1.924Zm27.29 20.877c-.58 0-1.123.196-1.568.64l-4.062 4.062-2.636-2.708-3.206 3.207 2.636 2.707-4.845 4.845c-.427.428-.712.962-.712 1.568 0 .605.285 1.211.712 1.638l5.415 5.487c.446.445 1.051.641 1.639.641.588 0 1.193-.196 1.639-.641l12.041-12.113c.428-.427.713-1.033.713-1.639 0-.605-.285-1.14-.713-1.567l-5.415-5.486c-.445-.446-1.06-.642-1.639-.642Zm-41.112 5.2-4.56 2.21V93.48H0v4.56h13.68v-4.56H9.12V54.934Zm61.417 15.035c-.578 0-1.193.267-1.638.712L56.786 82.792a2.26 2.26 0 0 0 0 3.207l5.486 5.415c.428.427 1.034.712 1.64.712.605 0 1.14-.285 1.567-.712l4.489-4.489 2.208 2.422 3.349-3.134-2.351-2.494 4.417-4.346c.428-.428.642-1.034.642-1.64a2.15 2.15 0 0 0-.642-1.567l-5.486-5.486c-.445-.445-.989-.713-1.568-.713Z"/>
  </g>
  <defs>
    <clipPath id="a">
      <path fill="#fff" d="M0 0h114v114H0z"/>
    </clipPath>
  </defs>
</svg>
