<svg xmlns="http://www.w3.org/2000/svg" width="114" height="114" fill="none" viewBox="0 0 114 114">
  <path fill="#000" d="M104.88 34.2c0-17.681-19.834-24.453-26.493-25.037C75.921 7.146 72.603 4.56 68.4 4.56H45.6c-4.204 0-7.522 2.586-9.986 4.603C28.954 9.747 9.12 16.52 9.12 34.2c0 5.255 1.256 9.277 1.995 11.193C9.717 47.812 6.84 53.988 6.84 63.84c0 .803.422 1.544 1.106 1.954l11.4 6.84a2.28 2.28 0 0 0 2.56-.144c1.558-1.194 2.796-2.92 3.785-4.904-.34-1.737-.61-3.632-.61-6.026 0-.91.024-1.756.058-2.572C25.288 57.873 26.204 57 27.36 57c1.224 0 2.207.971 2.26 2.184.013 1.035.02 1.863.02 2.376 0 2.92.445 4.913.962 7.218.618 2.757 1.318 5.883 1.318 11.022 0 .062-.03.114-.036.176.022.66.036 1.35.036 2.104v13.68c0 6.833 10.554 12.399 12.67 13.443.312.157.661.237 1.01.237h22.8c.349 0 .698-.08 1.01-.237 2.116-1.044 12.67-6.61 12.67-13.443V82.08c0-.755.014-1.443.037-2.104-.007-.062-.037-.114-.037-.176 0-5.14.7-8.265 1.318-11.022.517-2.305.962-4.297.962-7.218 0-.531.01-1.368.02-2.385A2.268 2.268 0 0 1 86.64 57c1.156 0 2.073.873 2.22 1.988.035.816.06 1.662.06 2.572 0 2.394-.271 4.289-.611 6.024.99 1.986 2.228 3.712 3.785 4.904a2.28 2.28 0 0 0 2.56.144l11.4-6.84a2.272 2.272 0 0 0 1.106-1.952c0-9.852-2.877-16.028-4.275-18.447.739-1.916 1.995-5.938 1.995-11.193ZM86.64 47.88S84.645 57 70.965 57C59.565 57 57 45.6 57 45.6S54.435 57 43.035 57c-13.68 0-15.675-9.12-15.675-9.12s-2.28-4.56-2.28-15.96c0-8.05 7.392-9.12 11.4-9.12 8.265 0 13.68 9.12 18.24 9.12h4.56c4.56 0 9.975-9.12 18.24-9.12 4.008 0 11.4 1.07 11.4 9.12 0 11.4-2.28 15.96-2.28 15.96Z"/>
</svg>
