<svg xmlns="http://www.w3.org/2000/svg" width="114" height="114" fill="none" viewBox="0 0 114 114">
  <g clip-path="url(#a)">
    <path fill="#000" d="M11.4 22.8C5.103 22.8 0 27.903 0 34.2c0 6.296 5.103 11.4 11.4 11.4 6.297 0 11.4-5.104 11.4-11.4 0-6.297-5.103-11.4-11.4-11.4Zm21.019 10.046c-3.153 0-6.146 1.906-7.339 4.988l-1.567 5.272a8.153 8.153 0 0 0 0 5.7l5.2 14.321-8.335 12.042c-1.372 1.825-1.123 4.613.926 5.985.686.685 1.585.855 2.494.855 1.371 0 2.511-.66 3.42-1.568L37.62 66.832c.677-.846 1.006-1.843.926-2.85a2.245 2.245 0 0 1-.213-.498L35.34 51.87a2.282 2.282 0 0 1 1.639-2.779 2.275 2.275 0 0 1 2.779 1.639l2.422 9.405 21.803 5.842 42.179 15.818c2.735.908 6.128-.971 7.268-3.705 1.14-2.734.846-6.983-2.921-8.55L35.554 33.487a7.661 7.661 0 0 0-3.135-.64ZM0 82.08v4.56h114v-4.56H0Z"/>
  </g>
  <defs>
    <clipPath id="a">
      <path fill="#fff" d="M0 0h114v114H0z"/>
    </clipPath>
  </defs>
</svg>
