<svg xmlns="http://www.w3.org/2000/svg" width="114" height="114" fill="none" viewBox="0 0 114 114">
  <path fill="#000" d="M78.562 6.697c-3.569 0-6.704 1.83-8.541 4.596-2.821-2.78-10.515-8.53-19.95.174 0 0 6.773 8.217 18.748 2.444-.303.967-.508 1.976-.508 3.042 0 5.666 4.587 10.264 10.251 10.264 5.675 0 10.269-4.598 10.269-10.264 0-5.661-4.594-10.256-10.269-10.256Zm-33.051 15.96a4.56 4.56 0 0 0-2.472.726l-.066.009-15.8 11.338a4.56 4.56 0 0 0-.846 7.112 4.56 4.56 0 0 0 3.224 1.335 4.56 4.56 0 0 0 2.935-1.077v.004l13.666-9.828 10.055 3.193L44.96 53.802v.005a9.12 9.12 0 0 0-1.728 5.33 9.12 9.12 0 0 0 5.085 8.172l17.154 10.58-3.879 19.977-.009.04v.013a5.7 5.7 0 0 0 1.558 5.149 5.7 5.7 0 0 0 7.668.354 5.7 5.7 0 0 0 1.96-3.334h.005l4.618-24.332-.014-.03c.033-.209.05-.418.054-.629a4.56 4.56 0 0 0-1.492-3.362l-.013-.04-12.318-10.919 10.648-21.05-.005-.013a6.84 6.84 0 0 0 .9-3.376 6.84 6.84 0 0 0-4.12-6.274l-.004-.01-5.718-3.183-18.614-4.061-.022.004a4.562 4.562 0 0 0-1.162-.156Zm32.405 19.937-5.112 10.095 2.757 6.079.026.017a4.56 4.56 0 0 0 4.124 2.632h15.96c2.52 0 4.56-2.04 4.56-4.56 0-2.52-2.04-4.56-4.56-4.56H81.99l-4.075-9.703ZM39.851 64.64l-5.192 8.176H17.01a5.7 5.7 0 0 0-5.7 5.7 5.7 5.7 0 0 0 5.7 5.7h19.224a9.123 9.123 0 0 0 7.441-3.847l5.21-7.352c-1.885-1.165-3.252-2.004-3.268-2.018a13.69 13.69 0 0 1-5.767-6.359Z"/>
</svg>
