<svg xmlns="http://www.w3.org/2000/svg" width="114" height="114" fill="none" viewBox="0 0 114 114">
  <path fill="#000" d="M54.934 0c-6.288 0-11.4 5.112-11.4 11.4s5.112 11.4 11.4 11.4 11.4-5.112 11.4-11.4S61.222 0 54.934 0ZM50.16 26.22c-4.47 0-7.98 3.51-7.98 7.98v2.28l.071.143c.01.062-.017.15 0 .213l6.555 21.375c.722 2.414 2.993 4.133 5.487 4.133.365 0 .712-.072 1.068-.143l18.24-3.349a13.64 13.64 0 0 1-2.992-7.623l-6.413 1.211-6.768 1.211c-.143.027-.294.071-.428.071a2.3 2.3 0 0 1-2.209-1.71l-2.707-10.26c-.071-.258-.09-.463-.071-.712a2.52 2.52 0 0 1 .07-.356c.019-.098.036-.187.072-.285.107-.267.303-.49.499-.713.285-.32.623-.596 1.069-.712 1.22-.32 2.458.427 2.778 1.639l2.21 8.193 6.27-1.14V38.76c0-7.036-5.505-12.54-12.54-12.54h-2.28Zm34.058 14.962c-5.032 0-9.12 4.088-9.12 9.12 0 5.032 4.088 9.12 9.12 9.12 5.032 0 9.12-4.087 9.12-9.12 0-5.032-4.088-9.12-9.12-9.12ZM42.18 52.155v6.697c0 5.086 1.523 9.824 4.346 13.823L58.14 89.063v19.166c0 3.144 2.556 5.7 5.7 5.7s5.7-2.556 5.7-5.7V86.426a.978.978 0 0 0-.071-.356l-6.983-20.52-6.198 1.14c-.642.125-1.336.214-1.995.214-4.49 0-8.541-3.046-9.833-7.339l-2.28-7.41Zm.356 22.871-3.562 32.633a5.8 5.8 0 0 0 1.282 4.203c.971 1.194 2.37 1.924 3.99 2.067h.428c2.859 0 5.424-2.316 5.7-5.13l2.209-19.665L42.75 75.31c-.08-.107-.142-.178-.214-.285Z"/>
</svg>
