<svg xmlns="http://www.w3.org/2000/svg" width="114" height="114" fill="none" viewBox="0 0 114 114">
  <path fill="#000" d="M83.024 9.12a4.545 4.545 0 0 0-3.224 1.336l-3.874 3.865 23.753 23.753 3.865-3.874a4.52 4.52 0 0 0 1.336-3.224 4.52 4.52 0 0 0-1.336-3.224L86.248 10.456a4.545 4.545 0 0 0-3.224-1.336Zm14.624.071c-1.772-.009-3.545.642-4.836 1.933l-.089.09 10.064 10.063.089-.089c2.672-2.663 2.663-7.01 0-9.681l-.392-.383c-1.291-1.291-3.055-1.933-4.836-1.933ZM65.096 11.32a4.545 4.545 0 0 0-3.224 1.336l-2.476 2.467a4.57 4.57 0 0 0 0 6.457l32.98 32.97a4.5 4.5 0 0 0 3.215 1.337 4.54 4.54 0 0 0 3.233-1.336l2.467-2.467a4.548 4.548 0 0 0 1.345-3.233c0-1.211-.481-2.36-1.345-3.215l-4.31-4.32-28.661-28.66a4.545 4.545 0 0 0-3.224-1.336Zm3.972 25.828-31.92 31.92 7.784 7.784 31.92-31.92-7.784-7.784ZM18.4 58.158c-1.175 0-2.36.427-3.224 1.291L12.7 61.916a4.577 4.577 0 0 0-1.336 3.233c0 1.212.481 2.36 1.336 3.216l28.34 28.34.107.115 1.39 1.38 3.143 3.144a4.544 4.544 0 0 0 3.224 1.336 4.544 4.544 0 0 0 3.224-1.336l2.476-2.476a4.558 4.558 0 0 0 0-6.448l-32.98-32.97c-.855-.865-2.04-1.292-3.224-1.292Zm-4.079 17.768L10.456 79.8a4.52 4.52 0 0 0-1.336 3.224c0 1.22.472 2.36 1.336 3.224l17.296 17.296a4.544 4.544 0 0 0 3.224 1.336 4.544 4.544 0 0 0 3.224-1.336l3.874-3.865-23.753-23.753Zm-3.108 16.797-.09.09c-2.671 2.662-2.662 7.008.01 9.68l.383.383a6.795 6.795 0 0 0 4.836 2.004 6.795 6.795 0 0 0 4.836-2.004l.089-.089-10.064-10.064Z"/>
</svg>
