<svg xmlns="http://www.w3.org/2000/svg" width="114" height="114" fill="none" viewBox="0 0 114 114">
  <path fill="#000" d="M41.04 4.56c-11.31 0-20.52 9.21-20.52 20.52 0 11.311 9.21 20.52 20.52 20.52 11.311 0 20.52-9.209 20.52-20.52 0-11.31-9.209-20.52-20.52-20.52Zm0 15.96c2.52 0 4.56 2.04 4.56 4.56 0 2.52-2.04 4.56-4.56 4.56-2.52 0-4.56-2.04-4.56-4.56 0-2.52 2.04-4.56 4.56-4.56ZM34.2 49.19v26.05c0 2.512-.232 4.56 2.28 4.56h61.56v23.94c0 3.188 2.512 5.7 5.7 5.7s5.7-2.512 5.7-5.7v-28.5c0-5.014-4.106-9.12-9.12-9.12h-11.4c-11.168 0-24.626-4.56-34.2-4.56H45.6V49.724a24.822 24.822 0 0 1-4.56.436c-2.369 0-4.667-.356-6.84-.97Zm-17.1 5.53c-7.018 0-12.54 5.522-12.54 12.54 0 7.018 5.522 12.54 12.54 12.54 7.018 0 12.54-5.522 12.54-12.54 0-7.018-5.522-12.54-12.54-12.54ZM6.84 84.36a2.279 2.279 0 0 0-2.28 2.28v2.28a2.279 2.279 0 0 0 2.28 2.28h82.08a2.273 2.273 0 0 0 2.28-2.28v-2.28a2.273 2.273 0 0 0-2.28-2.28H6.84Z"/>
</svg>
