<svg xmlns="http://www.w3.org/2000/svg" width="114" height="114" fill="none" viewBox="0 0 114 114">
  <path fill="#000" d="M45.6 4.56c-4.204 0-7.524 2.587-9.988 4.605C28.952 9.748 9.12 16.519 9.12 34.2c0 5.255 1.256 9.276 1.995 11.19-1.398 2.42-4.275 8.598-4.275 18.45 0 .803.42 1.545 1.104 1.955l11.4 6.84a2.28 2.28 0 0 0 2.561-.142c1.557-1.195 2.796-2.924 3.785-4.908-.34-1.737-.61-3.63-.61-6.025V47.88a2.28 2.28 0 0 1 2.28-2.28c.98 0 1.803.625 2.124 1.496.03.064.115.323.156.437.45 1.27 3.112 7.187 13.68 7.187 9.423 0 11.365-9.173 11.445-9.565.214-1.083 1.175-1.793 2.235-1.79 1.06 0 2.021.709 2.236 1.79.08.392 2.02 9.565 11.444 9.565 10.568 0 13.23-5.915 13.68-7.187.041-.114.126-.373.156-.437A2.27 2.27 0 0 1 86.64 45.6a2.28 2.28 0 0 1 2.28 2.28v13.68c0 2.394-.27 4.29-.61 6.025.99 1.986 2.228 3.71 3.785 4.903a2.28 2.28 0 0 0 2.56.142l11.401-6.84a2.269 2.269 0 0 0 1.104-1.95c0-9.852-2.877-16.03-4.275-18.45.739-1.914 1.995-5.934 1.995-11.19 0-17.681-19.832-24.452-26.492-25.035C75.924 7.147 72.604 4.56 68.4 4.56H45.6ZM57 51.55c-2.387 3.907-6.705 7.73-13.68 7.73-6.669 0-10.955-1.982-13.68-4.253v6.533c0 2.92.444 4.913.962 7.219.618 2.756 1.318 5.882 1.318 11.021 0 .062-.029.112-.036.174.023.66.036 1.351.036 2.106v13.68c0 6.833 10.553 12.4 12.67 13.444.312.157.661.236 1.01.236h22.8a2.25 2.25 0 0 0 1.01-.236c2.117-1.044 12.67-6.611 12.67-13.444V82.08c0-.755.013-1.445.036-2.106-.007-.062-.036-.112-.036-.174 0-5.14.7-8.265 1.318-11.021.518-2.305.962-4.298.962-7.219v-6.533c-2.725 2.271-7.01 4.253-13.68 4.253-6.974 0-11.293-3.823-13.68-7.73Z"/>
</svg>
