<svg xmlns="http://www.w3.org/2000/svg" width="114" height="114" fill="none" viewBox="0 0 114 114">
  <path fill="#000" d="M45.6 4.56c-4.193 0-7.504 2.571-9.966 4.587C29.088 9.523 9.12 16.318 9.12 34.2c0 5.255 1.256 9.276 1.995 11.19-1.398 2.42-4.275 8.598-4.275 18.45 0 .72.333 1.364.855 1.781.39.313 11.605 7.028 11.97 7.174a2.276 2.276 0 0 0 2.24-.302c1.557-1.195 2.782-2.938 3.772-4.926a29.702 29.702 0 0 1-.597-6.007v-9.12a2.28 2.28 0 1 1 4.56 0v9.12c0 2.066.223 3.671.512 5.117h.009c.103.52.213 1.047.33 1.576.07.296.145.599.218.89.378 1.528.752 3.11.872 4.944.203 1.616.339 3.465.339 5.713 0 .062-.029.112-.036.174.023.66.036 1.351.036 2.106v13.68c0 6.833 10.553 12.4 12.67 13.444a2.25 2.25 0 0 0 1.01.236h22.8c.349 0 .698-.079 1.01-.236 2.117-1.044 12.67-6.611 12.67-13.444V82.08c0-.755.013-1.445.036-2.106-.007-.062-.036-.112-.036-.174 0-2.248.136-4.097.338-5.713.123-1.833.495-3.416.873-4.943.073-.292.148-.592.218-.89.117-.53.227-1.058.33-1.577h.009c.29-1.446.512-3.051.512-5.117v-9.12a2.28 2.28 0 1 1 4.56 0v9.12c0 2.447-.266 4.345-.597 6.007.99 1.989 2.215 3.73 3.772 4.926a2.277 2.277 0 0 0 2.24.302c.365-.148 11.58-6.861 11.97-7.174.522-.417.855-1.06.855-1.78 0-9.853-2.877-16.031-4.275-18.45.739-1.915 1.995-5.935 1.995-11.19 0-17.883-19.968-24.678-26.514-25.054C75.904 7.13 72.593 4.56 68.4 4.56H45.6Zm-2.316 50.13c1.22-.007 5.498-.007 9.17 0a2.27 2.27 0 0 1 2.266 2.275v9.156h-2.28a2.28 2.28 0 1 0 0 4.56h2.28v22.8a2.28 2.28 0 0 1-2.28 2.28h-2.28a6.84 6.84 0 0 1-6.84-6.84v-4.89c.734.193 1.489.33 2.28.33a2.28 2.28 0 1 0 0-4.56 4.525 4.525 0 0 1-4.56-4.56v-4.56a2.28 2.28 0 1 0 0-4.56 2.244 2.244 0 0 1-2.28-2.28V59.25a4.556 4.556 0 0 1 4.524-4.56Zm27.432 0a4.555 4.555 0 0 1 4.524 4.56v4.591c0 1.288-.992 2.28-2.28 2.28a2.28 2.28 0 1 0 0 4.56v4.56a4.525 4.525 0 0 1-4.56 4.56 2.28 2.28 0 1 0 0 4.56c.791 0 1.546-.137 2.28-.33v4.89a6.84 6.84 0 0 1-6.84 6.84h-2.28a2.28 2.28 0 0 1-2.28-2.28v-22.8h2.28a2.28 2.28 0 1 0 0-4.56h-2.28v-9.142a2.27 2.27 0 0 1 2.262-2.276c3.671-.011 7.954-.022 9.174-.013Z"/>
</svg>
