<svg xmlns="http://www.w3.org/2000/svg" width="114" height="114" fill="none" viewBox="0 0 114 114">
  <path fill="#000" d="M9.12 9.12a2.28 2.28 0 0 0-2.28 2.28v91.2a2.28 2.28 0 0 0 2.28 2.28H34.2a2.28 2.28 0 0 0 2.28-2.28V11.4a2.28 2.28 0 0 0-2.28-2.28H9.12Zm34.2 0a2.28 2.28 0 0 0-2.28 2.28v91.2a2.28 2.28 0 0 0 2.28 2.28H68.4a2.28 2.28 0 0 0 2.28-2.28V11.4a2.28 2.28 0 0 0-2.28-2.28H43.32Zm34.2 0a2.28 2.28 0 0 0-2.28 2.28v91.2a2.28 2.28 0 0 0 2.28 2.28h25.08a2.28 2.28 0 0 0 2.28-2.28V11.4a2.28 2.28 0 0 0-2.28-2.28H77.52Zm-61.56 11.4h11.4a2.28 2.28 0 1 1 0 4.56h-11.4a2.28 2.28 0 1 1 0-4.56Zm34.2 0h11.4a2.28 2.28 0 1 1 0 4.56h-11.4a2.28 2.28 0 1 1 0-4.56Zm34.2 0h11.4a2.28 2.28 0 1 1 0 4.56h-11.4a2.28 2.28 0 1 1 0-4.56Zm-68.4 6.84h11.4a2.28 2.28 0 1 1 0 4.56h-11.4a2.28 2.28 0 1 1 0-4.56Zm34.2 0h11.4a2.28 2.28 0 1 1 0 4.56h-11.4a2.28 2.28 0 1 1 0-4.56Zm34.2 0h11.4a2.28 2.28 0 1 1 0 4.56h-11.4a2.28 2.28 0 1 1 0-4.56Zm-57 22.8a2.28 2.28 0 0 1 2.28 2.28v9.12a2.28 2.28 0 1 1-4.56 0v-9.12a2.28 2.28 0 0 1 2.28-2.28Zm34.2 0a2.28 2.28 0 0 1 2.28 2.28v9.12a2.28 2.28 0 1 1-4.56 0v-9.12a2.28 2.28 0 0 1 2.28-2.28Zm34.2 0a2.28 2.28 0 0 1 2.28 2.28v9.12a2.28 2.28 0 1 1-4.56 0v-9.12a2.28 2.28 0 0 1 2.28-2.28Zm-79.8 34.2h11.4a2.28 2.28 0 1 1 0 4.56h-11.4a2.28 2.28 0 1 1 0-4.56Zm34.2 0h11.4a2.28 2.28 0 1 1 0 4.56h-11.4a2.28 2.28 0 1 1 0-4.56Zm34.2 0h11.4a2.28 2.28 0 1 1 0 4.56h-11.4a2.28 2.28 0 1 1 0-4.56Zm-68.4 6.84h11.4a2.28 2.28 0 1 1 0 4.56h-11.4a2.28 2.28 0 1 1 0-4.56Zm34.2 0h11.4a2.28 2.28 0 1 1 0 4.56h-11.4a2.28 2.28 0 1 1 0-4.56Zm34.2 0h11.4a2.28 2.28 0 1 1 0 4.56h-11.4a2.28 2.28 0 1 1 0-4.56Z"/>
</svg>
