<svg xmlns="http://www.w3.org/2000/svg" width="114" height="114" fill="none" viewBox="0 0 114 114">
  <path fill="#000" d="M50.16 4.56c-6.297 0-11.4 5.103-11.4 11.4 0 6.297 5.103 11.4 11.4 11.4 6.297 0 11.4-5.103 11.4-11.4 0-6.297-5.103-11.4-11.4-11.4ZM47.88 34.2a9.115 9.115 0 0 0-9.12 9.12v29.64a9.103 9.103 0 0 0 9.12 9.12c1.443 0 2.779-.285 3.99-.677v.01l.356-.143c.472-.16.918-.339 1.345-.535l13.787-5.495 5.94 16.69c1.3 3.643 5.932 5.148 9.245 2.307 1.772-1.514 2.227-4.079 1.452-6.279l-6.831-19.157a6.843 6.843 0 0 0-7.01-4.525L57 65.373V43.32h29.64c2.52 0 4.56-2.04 4.56-4.56 0-2.52-2.04-4.56-4.56-4.56H47.88Zm-8.39 49.546-.73 4.63-17.189 7.883a5.708 5.708 0 0 0-2.797 7.561 5.7 5.7 0 0 0 7.553 2.806l20.582-9.45a6.87 6.87 0 0 0 3.883-5.014l1.07-6.02c-1.159.275-2.53.498-3.982.498a13.594 13.594 0 0 1-8.39-2.894ZM82.08 95.76c-5.513 0-10.117 3.919-11.177 9.12h-.223a2.294 2.294 0 0 0-2.004 1.131 2.302 2.302 0 0 0 0 2.298 2.294 2.294 0 0 0 2.004 1.131h22.8a2.294 2.294 0 0 0 2.004-1.131 2.3 2.3 0 0 0 0-2.298 2.294 2.294 0 0 0-2.004-1.131h-.223c-1.06-5.201-5.664-9.12-11.177-9.12Z"/>
</svg>
