<svg xmlns="http://www.w3.org/2000/svg" width="114" height="114" fill="none" viewBox="0 0 114 114">
  <g clip-path="url(#a)">
    <path fill="#000" d="M83.354 0c-7.185 0-12.46 2.217-15.916 5.811-3.3 3.432-4.804 7.931-5.433 12.496l-4.386 7.552a1.687 1.687 0 0 0-.018.036c-1.05 1.892-.36 4.438 1.559 5.504l.053.031 2.347 1.216.018 3.847c.003 2.56.85 4.96 2.507 6.684 1.66 1.728 4.153 2.663 6.827 2.414l-.214.009c.648 0 1.22.255 1.63.668-3.354.665-6.399 1.998-8.715 3.683-7.347-3.678-14.75-1.273-19.153 3.673-.711-.967-.722-1.405-2.285-2.6-5.234-4-10.597-3.542-14.25-1.581-.53.284-.818.669-1.29.993.306-2.443.46-5.154-.081-8.287a22.861 22.861 0 0 1 .557-10.256v-.004c-.075.263.107-.216.24-.552.25 1.159.754 2.29 1.746 3.05.596.456 1.18.755 2.061.97.42.104.918.163 1.519.085.615.23 1.238.278 1.861.259a4.251 4.251 0 0 0 1.768-.441c.683.113 1.373.096 1.906-.067.456-.14.687-.682 1.078-.922.187.01.35.146.53.12a3.319 3.319 0 0 0 1.697-.783c.775-.664 1.063-1.293 1.286-1.862l.005-.009c.919-2.369.271-4.564-.477-6.995-.316-1.03-.502-2.235-1.082-3.603a8.082 8.082 0 0 0-3.438-3.825c-3.311-1.895-7.156-1.425-9.845-1.105-4.172.496-7.858 2.496-11.16 6.827l-.004.005a50.795 50.795 0 0 0-1.915 2.667c-2.608 3.93-7.88 11.685-11.565 24.051-1.333 4.476-1.163 9.244-.552 13.084.305 1.92.726 3.6 1.175 4.934.225.666.453 1.243.709 1.754.255.511.388.945 1.162 1.536 1.19.91 2.14 1.003 3.144 1.35 1.003.347 1.99.76 2.832 1.403 1.63 1.244 3.44 4.052 8.18 8.06 7.142 6.04 15.427 5.35 21.442 3.175 2.694-.974 4.944-2.223 6.702-3.322.746 7.546 3.341 11.718 4.484 14.815.029.078.061.153.098.227.832 1.672 1.56 3.062 2.178 4.324.05.137.112.268.187.392 1.582 3.292 2.351 5.754 1.964 10.024a2.284 2.284 0 0 0 1.357 2.294c.291.127.605.192.923.191h50.133V51.068a2.278 2.278 0 0 0-1.26-2.12c-2.947-1.477-6.692-2.556-10.091-2.983l.049-3.05.004-.036c0-3.243 1.09-6.466 2.966-9.196a21.44 21.44 0 0 0 3.768-12.161c0-5.486-1.567-10.865-5.14-14.918C96.165 2.551 90.604 0 83.355 0Zm0 4.56c6.218 0 10.282 2.017 12.963 5.059 2.68 3.041 3.999 7.286 3.999 11.903 0 3.57-1.103 6.868-2.966 9.579-2.356 3.427-3.768 7.52-3.768 11.778l-.084 4.965a2.28 2.28 0 0 0 2.28 2.316c.596 0 1.359.088 2.209.24-.07.575-.388 2.864-1.897 5.451-1.71 2.93-4.492 5.709-10.572 5.709-6.08 0-8.863-2.779-10.572-5.709-1.476-2.53-1.802-4.731-1.884-5.38.78-.186 1.531-.311 2.196-.311a2.28 2.28 0 0 0 2.28-2.28c0-3.75-3.09-6.84-6.84-6.84-.07 0-.14.003-.21.009-1.461.136-2.391-.279-3.117-1.033-.725-.755-1.233-1.965-1.233-3.536v-.013l-.027-5.22a2.281 2.281 0 0 0-1.229-2.012l-3.033-1.577 4.235-7.303c.157-.269.257-.568.294-.877.492-4.159 1.814-7.875 4.347-10.51C73.257 6.336 77.07 4.56 83.354 4.56ZM30.45 20.578c1.99-.086 4.009.07 5.1.695.946.54 1.201.938 1.5 1.643.299.705.5 1.791.922 3.166.667 2.17.748 2.862.53 3.643a2.28 2.28 0 0 0-1.488.921 2.28 2.28 0 0 0-2.756.37A2.28 2.28 0 0 0 32 30.825c-.051-.025-.17-.086-.134-.058-.346-.266-.376-.49-.11-.837a2.28 2.28 0 0 0-2.584-3.532c.064-.023-.456.012-1.313-.049-.43-.03-.946-.07-1.617.058-.67.128-1.568.539-2.142 1.287v.004c-.428.56-.332.536-.44.758a25.92 25.92 0 0 0-.343.73c-.234.515-.384.722-.593 1.456v.004a27.74 27.74 0 0 0-.663 12.278c.995 5.77-.345 10-1.3 13.466a2.28 2.28 0 0 0 4.012 1.99c.826-1.081 2.781-3.562 5.312-4.92 2.531-1.359 5.268-1.912 9.32 1.184 2.177 1.665 3.051 3.394 3.051 3.394a2.28 2.28 0 0 0 3.843.347l.873-1.14v-.005c3.215-4.207 8.642-6.585 14.718-3.29.999 3.98 5.943 26.297-4.494 42.037-.198-.394-.369-.737-.574-1.149-1.677-4.471-4.364-8.027-4.364-17.318v-.027a2.29 2.29 0 0 0-.014-.245l-.004-.035a2.82 2.82 0 0 0-.009-.031 2.28 2.28 0 0 0-3.174-1.78 2.28 2.28 0 0 0-.74.524c-.467.383-3.873 3.112-8.653 4.84-5.134 1.857-11.217 2.475-16.944-2.369h-.004c-4.349-3.676-5.698-6.169-8.354-8.198-1.445-1.104-2.948-1.686-4.11-2.088-1.069-.37-1.734-.67-1.715-.615l-.004-.004a9.85 9.85 0 0 1-.468-1.172c-.35-1.039-.721-2.512-.989-4.194-.534-3.364-.62-7.57.419-11.062v-.005c3.497-11.73 8.345-18.845 10.99-22.83a46.429 46.429 0 0 1 1.746-2.428l.004-.004c2.801-3.671 4.828-4.674 8.065-5.059h.004a26.218 26.218 0 0 1 1.946-.16Zm6.43 10.255.01.005a2.302 2.302 0 0 0-.063.116c-.002.019.067-.125.054-.12Zm-11.747 32.98a2.28 2.28 0 0 0-2.075 3.327s.837 1.623 2.61 3.041c1.772 1.418 4.623 2.779 8.55 2.779 3.926 0 6.777-1.36 8.55-2.779 1.772-1.418 2.61-3.041 2.61-3.041a2.28 2.28 0 0 0-4.08-2.04s-.303.657-1.38 1.519c-1.078.862-2.787 1.781-5.7 1.781-2.914 0-4.623-.92-5.7-1.781-1.078-.862-1.38-1.519-1.38-1.519a2.28 2.28 0 0 0-2.005-1.287Z"/>
  </g>
  <defs>
    <clipPath id="a">
      <path fill="#fff" d="M0 0h114v114H0z"/>
    </clipPath>
  </defs>
</svg>
