<svg xmlns="http://www.w3.org/2000/svg" width="114" height="114" fill="none" viewBox="0 0 114 114">
  <path fill="#000" d="M57 2.28c-31.43 0-57 22.71-57 50.614 0 13.484 5.87 26.095 16.557 35.652-1.977 5.833-7.045 9.85-10.812 12.834-3.456 2.734-5.959 4.711-5.21 7.508l.24.917.82.472c2.074 1.185 4.835 1.79 8.229 1.79 11.284 0 27.502-6.475 34.645-9.592a59.683 59.683 0 0 0 12.3 1.265c31.438 0 56.999-22.711 56.999-50.614C113.768 25.089 88.305 2.28 57 2.28Zm3.652 75.24c0 .454-.232.908-.918.908h-5.237v-.222c-.463 0-.917-.232-.917-.909V46.74c0-.454.232-.909.917-.909h5.237c.463 0 .918.223.918.909v30.78Zm0-41.494c0 .454-.232.908-.918.908h-5.468c-.454 0-.909-.223-.909-.908v-5.932c0-.454.223-.908.909-.908h5.468c.463 0 .918.222.918.908v5.932Z"/>
</svg>
