<svg xmlns="http://www.w3.org/2000/svg" width="114" height="114" fill="none" viewBox="0 0 114 114">
  <g clip-path="url(#a)">
    <path fill="#000" d="M27.36 18.24c-5.04 0-9.12 4.08-9.12 9.12 0 5.041 4.08 9.12 9.12 9.12a9.115 9.115 0 0 0 9.12-9.12c0-5.04-4.079-9.12-9.12-9.12Zm-9.619 20.52c-2.734 0-4.987 1.621-6.127 4.133L.64 69.754c-1.825 4.328.232 9.36 4.56 11.186l1.425.713c1.595.454 3.402.427 4.774.427 1.372 0 21.874-.926 21.874-.926L47.88 91.2H27.36v-9.12H0v4.56h22.8v9.12h68.614l9.547-25.151c-1.567-.151-3.019-.561-4.417-1.14L88.279 91.2H55.504c.223-.222.436-.427.641-.712 1.594-2.28.926-5.531-1.354-7.125L37.834 71.606c-.909-.685-2.28-.926-3.42-.926H22.8l7.98-19.594 25.223 6.484c.454 0 .685.214 1.14.214 2.048 0 3.892-1.31 4.346-3.135.231-2.512-1.14-5.014-3.42-5.7L21.66 38.974c-.908-.232-3.464-.214-3.919-.214Zm84.859 4.56c-6.288 0-11.4 5.112-11.4 11.4s5.112 11.4 11.4 11.4 11.4-5.112 11.4-11.4-5.112-11.4-11.4-11.4Zm-36.48 9.12V57h20.734c-.107-.748-.214-1.505-.214-2.28 0-.775.107-1.532.214-2.28H66.12Z"/>
  </g>
  <defs>
    <clipPath id="a">
      <path fill="#fff" d="M0 0h114v114H0z"/>
    </clipPath>
  </defs>
</svg>
