<svg xmlns="http://www.w3.org/2000/svg" width="114" height="114" fill="none" viewBox="0 0 114 114">
  <g clip-path="url(#a)">
    <path fill="#000" d="M57 2.28c-5.657 0-10.26 4.603-10.26 10.26S51.343 22.8 57 22.8s10.26-4.604 10.26-10.26c0-5.657-4.603-10.26-10.26-10.26Zm-8.18 25.08c-3.667 0-7.14 1.596-9.526 4.382L20.297 53.914A4.48 4.48 0 0 0 19.224 57h-3.246a2.28 2.28 0 0 0-2.28 2.24c-.004.206-.018.464-.018.783C13.68 89.552 32.782 114 57 114s43.32-24.448 43.32-53.977c0-.32-.014-.577-.018-.783a2.277 2.277 0 0 0-2.28-2.24h-3.246a4.463 4.463 0 0 0-1.064-3.082L74.697 31.733a12.523 12.523 0 0 0-9.517-4.373H48.82Zm21.085 16.539L87.25 60.202a4.376 4.376 0 0 0 2.828 1.18c.289.121.6.182.913.178h4.644C94.978 88.384 77.71 109.44 57 109.44c-20.71 0-37.978-21.056-38.635-47.88h5.059a2.28 2.28 0 0 0 1.21-.33 4.39 4.39 0 0 0 2.187-1.09l17.26-16.228 1.43 56.341a4.724 4.724 0 0 0 4.752 4.627c2.448 0 4.528-1.911 4.733-4.351l2.191-25.743 1.719 14.441a4.823 4.823 0 0 0 4.787 4.253 4.8 4.8 0 0 0 4.818-4.672l1.394-44.91Z"/>
  </g>
  <defs>
    <clipPath id="a">
      <path fill="#fff" d="M0 0h114v114H0z"/>
    </clipPath>
  </defs>
</svg>
