<svg xmlns="http://www.w3.org/2000/svg" width="114" height="114" fill="none" viewBox="0 0 114 114">
  <path fill="#000" d="M45.6 4.56c-6.286 0-11.4 5.114-11.4 11.4 0 6.286 5.114 11.4 11.4 11.4 6.286 0 11.4-5.114 11.4-11.4 0-6.286-5.114-11.4-11.4-11.4Zm16.276 22.836c-.451.006-.902.063-1.354.116-.291.034-.587.045-.877.097-.474.087-.938.224-1.403.361-.257.075-.521.127-.774.218-.504.18-.985.418-1.466.66-.196.097-1.43.843-1.447.854l-9.68 6.778H33.486c-2.054 0-3.841 1.104-4.845 2.739l-1.38-.504a6.708 6.708 0 0 0-2.307-.405c-2.825 0-5.373 1.78-6.403 4.614a6.702 6.702 0 0 0 .227 5.16 6.682 6.682 0 0 0 3.803 3.483l8.661 3.153H13.68v4.56h18.24v50.16h4.56V57c0-.13-.013-.26-.036-.387l37.723 13.733a7.889 7.889 0 0 0 5.099.102l.004-.004a7.953 7.953 0 0 0 5.032-4.845c.025-.078.168-.532.294-1.113.11-.805.164-2.026.191-3.278v-4.55c.003-3.85-.708-7.52-2.12-11.005-2.352-5.804-6.653-11.087-12.873-15.781a11.852 11.852 0 0 0-1.808-1.118c-.215-.107-.447-.18-.668-.276-.424-.185-.845-.371-1.287-.508-.283-.086-.581-.134-.869-.2-.396-.094-.79-.193-1.193-.25-.317-.043-.634-.052-.953-.075-.378-.025-.76-.056-1.14-.05Zm-6.02 15.31 10.696 9.84v.468h-.005l-16.757-6.1c.297-.183.584-.379.873-.575l5.193-3.633Zm29.6 29.239a12.48 12.48 0 0 1-8.586 3.438c-1.457 0-2.894-.254-4.262-.753l-.672-.245.837 9.552c.08.563.15 1.099.378 1.617l7.059 19.384a6.858 6.858 0 0 0 6.425 4.502c.798 0 1.584-.14 2.338-.414a6.802 6.802 0 0 0 3.861-3.54 6.776 6.776 0 0 0 .227-5.224l-6.75-18.556-.856-9.761Z"/>
</svg>
