<svg xmlns="http://www.w3.org/2000/svg" width="114" height="114" fill="none" viewBox="0 0 114 114">
  <g clip-path="url(#a)">
    <path fill="#000" d="M12.54.428c-.4 0-.82.071-1.211.142L5.272 1.71C1.756 2.37-.524 5.745.143 9.263L5.558 38.19c.58 3.064 3.296 5.273 6.413 5.273.4 0 .82 0 1.211-.072l5.985-1.14c3.51-.659 5.86-4.034 5.201-7.552L18.881 5.771C18.302 2.708 15.657.428 12.54.428Zm88.849.071c-3.046.053-5.71 2.253-6.27 5.272L89.704 34.7c-.32 1.701.018 3.411.997 4.845.98 1.434 2.414 2.458 4.133 2.779l5.985 1.069c.409.08.81.07 1.211.07 3.108 0 5.834-2.208 6.412-5.272l5.415-28.927c.321-1.701-.017-3.411-.997-4.845-.98-1.434-2.414-2.45-4.133-2.779L102.742.57c-.445-.089-.917-.08-1.353-.071ZM78.874 11.472c-1.692-.063-2.966 1.264-3.206 2.92-.045.313-.099.615-.143.927-.4-.027-.561-.045-.998-.071h-.07c-.09-.01-.197.009-.286 0-.267-.018-.507-.054-.784-.071-10.945-.615-22.737-.58-33.7.07-.393.01-.749.054-1.14.072-.544-3.776-2.673-3.59-3.563-3.563-2.503.08-3.01 1.817-3.064 4.062-.33.035-.935.053-1.14.071-1.398.134-3.269.356-5.201.57l.855 4.489a388.05 388.05 0 0 1 4.773-.499c.116-.009.615-.054.784-.071C33.577 54.4 42.697 58.363 43.89 61.418c.347 1.897 2.921 12.041 2.921 12.041l-31.706 32.134c-2.859 1.995-2.716 4.56-1.924 6.341.944 2.12 4.338 2.868 6.84 1.069l39.33-31.992 19.879 3.706s-1.861 19.388-2.138 22.158c-.276 2.77.294 7.125 3.777 7.125 3.144 0 4.302-1.104 5.415-5.059 0 0 4.426-26.905 4.702-29.497.294-2.743-.48-3.607-2.636-4.489-2.155-.882-17.527-6.483-17.527-6.483s1.229-6.19 1.425-9.762c2.93-5.851 7.855-13.635 9.832-38.332.4.035 1.024.116 1.282.142.838.08 2.218.24 4.276.499l.855-4.489c-1.915-.24-3.527-.454-4.703-.57-.276-.027-.962-.098-1.425-.142.276-2.538-.953-4.248-3.491-4.346Zm-22.016 7.837c5.789 0 11.56.17 17.1.499.418.026.543.044.926.071C72.444 38.725 69.994 54.72 57 54.72c-13.012 0-15.363-18.988-17.813-34.912.152-.01.366.009.5 0a285.395 285.395 0 0 1 17.17-.499ZM57 31.92c-5.04 0-9.12 4.08-9.12 9.12 0 5.041 4.08 9.12 9.12 9.12 5.04 0 9.12-4.079 9.12-9.12 0-5.04-4.08-9.12-9.12-9.12Z"/>
  </g>
  <defs>
    <clipPath id="a">
      <path fill="#fff" d="M0 0h114v114H0z"/>
    </clipPath>
  </defs>
</svg>
