<svg xmlns="http://www.w3.org/2000/svg" width="24" height="24" fill="none" viewBox="0 0 24 24">
  <g clip-path="url(#a)">
    <path fill="#464646" fill-rule="evenodd" d="M.293.293a1 1 0 0 1 1.414 0l22 22a1 1 0 0 1-1.414 1.414l-22-22a1 1 0 0 1 0-1.414Zm15.528 10.328a1 1 0 0 1 1.338-.46c.893.436 1.73.983 2.488 1.626a1 1 0 0 1-1.294 1.525 9.942 9.942 0 0 0-2.072-1.353 1 1 0 0 1-.46-1.338Z" clip-rule="evenodd"/>
    <path fill="#464646" fill-rule="evenodd" d="M11.156 9.991a1 1 0 0 1-.817 1.155 9.94 9.94 0 0 0-4.698 2.171 1 1 0 0 1-1.282-1.534A11.94 11.94 0 0 1 10 9.175a1 1 0 0 1 1.155.816Zm5.575-3.226a15 15 0 0 0-5.94-.718 1 1 0 1 1-.161-1.994A17 17 0 0 1 23.242 8.25a1 1 0 0 1-1.323 1.5 15 15 0 0 0-5.188-2.985ZM7.05 5.754a1 1 0 0 1-.563 1.297A14.91 14.91 0 0 0 2.082 9.75a1 1 0 1 1-1.324-1.5 16.91 16.91 0 0 1 4.995-3.06 1 1 0 0 1 1.297.563Zm4.955 10.247a5 5 0 0 0-2.896.924 1 1 0 1 1-1.158-1.63 7 7 0 0 1 8.108 0 1 1 0 0 1-1.158 1.63A5 5 0 0 0 12.005 16ZM11 20a1 1 0 0 1 1-1h.01a1 1 0 1 1 0 2H12a1 1 0 0 1-1-1Z" clip-rule="evenodd"/>
  </g>
  <defs>
    <clipPath id="a">
      <path fill="#fff" d="M0 0h24v24H0z"/>
    </clipPath>
  </defs>
</svg>
