<svg xmlns="http://www.w3.org/2000/svg" width="24" height="24" fill="none" viewBox="0 0 24 24">
  <path fill="#464646" fill-rule="evenodd" d="M12.04 11.002a10 10 0 0 0-6.4 2.316 1 1 0 1 1-1.28-1.537 12 12 0 0 1 15.36 0 1 1 0 1 1-1.28 1.537 10 10 0 0 0-6.4-2.316Z" clip-rule="evenodd"/>
  <path fill="#464646" fill-rule="evenodd" d="M12 6.003A15 15 0 0 0 2.08 9.75a1 1 0 0 1-1.32-1.5 17 17 0 0 1 22.482 0 1 1 0 0 1-1.322 1.5A15 15 0 0 0 12 6.003Zm.005 9.998a5 5 0 0 0-2.896.924 1 1 0 1 1-1.158-1.63 7 7 0 0 1 8.108 0 1 1 0 0 1-1.158 1.63A5 5 0 0 0 12.005 16ZM11 20a1 1 0 0 1 1-1h.01a1 1 0 1 1 0 2H12a1 1 0 0 1-1-1Z" clip-rule="evenodd"/>
</svg>
