<svg xmlns="http://www.w3.org/2000/svg" width="24" height="24" fill="none" viewBox="0 0 24 24">
  <path fill="#464646" fill-rule="evenodd" d="M7.153 1.293A1 1 0 0 1 7.86 1h8.28a1 1 0 0 1 .707.293l5.86 5.86A1 1 0 0 1 23 7.86v8.28a1 1 0 0 1-.293.707l-5.86 5.86a1 1 0 0 1-.707.293H7.86a1 1 0 0 1-.707-.293l-5.86-5.86A1 1 0 0 1 1 16.14V7.86a1 1 0 0 1 .293-.707l5.86-5.86ZM8.274 3 3 8.274v7.452L8.274 21h7.452L21 15.726V8.274L15.726 3H8.274Z" clip-rule="evenodd"/>
  <path fill="#464646" fill-rule="evenodd" d="M12 7a1 1 0 0 1 1 1v4a1 1 0 1 1-2 0V8a1 1 0 0 1 1-1Zm-1 9a1 1 0 0 1 1-1h.01a1 1 0 1 1 0 2H12a1 1 0 0 1-1-1Z" clip-rule="evenodd"/>
</svg>
