<svg xmlns="http://www.w3.org/2000/svg" width="24" height="24" fill="none" viewBox="0 0 24 24">
  <path fill="#464646" fill-rule="evenodd" d="M12 3a9 9 0 1 0 0 18 9 9 0 0 0 0-18ZM1 12C1 5.925 5.925 1 12 1s11 4.925 11 11-4.925 11-11 11S1 18.075 1 12Z" clip-rule="evenodd"/>
  <path fill="#464646" fill-rule="evenodd" d="M12.258 8.024a2 2 0 0 0-2.225 1.308 1 1 0 1 1-1.886-.664 4 4 0 0 1 7.773 1.333c0 1.53-1.135 2.541-1.945 3.081a8.041 8.041 0 0 1-1.686.849l-.035.012-.011.004h-.004l-.002.001L11.92 13l.316.949a1 1 0 0 1-.633-1.897H11.6h.002l.016-.006a5.88 5.88 0 0 0 .364-.147c.246-.11.568-.271.882-.481.69-.46 1.055-.949 1.055-1.418a2 2 0 0 0-1.662-1.975ZM11 17a1 1 0 0 1 1-1h.01a1 1 0 1 1 0 2H12a1 1 0 0 1-1-1Z" clip-rule="evenodd"/>
</svg>
