<svg xmlns="http://www.w3.org/2000/svg" width="24" height="24" fill="none" viewBox="0 0 24 24">
  <path fill="#464646" fill-rule="evenodd" d="M15.663 3.773A9 9 0 1 0 21 12v-.92a1 1 0 1 1 2 0V12A11.002 11.002 0 0 1 8.188 22.313a11 11 0 1 1 8.289-20.366 1 1 0 1 1-.814 1.827Z" clip-rule="evenodd"/>
  <path fill="#464646" fill-rule="evenodd" d="M22.707 3.293a1 1 0 0 1 0 1.414l-10 10.01a1 1 0 0 1-1.414 0l-3-3a1 1 0 1 1 1.414-1.414L12 12.595l9.293-9.302a1 1 0 0 1 1.414 0Z" clip-rule="evenodd"/>
</svg>
