<svg xmlns="http://www.w3.org/2000/svg" width="24" height="24" fill="none" viewBox="0 0 24 24">
  <path fill="#464646" fill-rule="evenodd" d="M22.707 3.293a1 1 0 0 1 0 1.414l-10 10a1 1 0 0 1-1.414 0l-3-3a1 1 0 1 1 1.414-1.414L12 12.586l9.293-9.293a1 1 0 0 1 1.414 0Z" clip-rule="evenodd"/>
  <path fill="#464646" fill-rule="evenodd" d="M5 4a1 1 0 0 0-1 1v14a1 1 0 0 0 1 1h14a1 1 0 0 0 1-1v-7a1 1 0 1 1 2 0v7a3 3 0 0 1-3 3H5a3 3 0 0 1-3-3V5a3 3 0 0 1 3-3h11a1 1 0 1 1 0 2H5Z" clip-rule="evenodd"/>
</svg>
