<svg xmlns="http://www.w3.org/2000/svg" width="24" height="24" fill="none" viewBox="0 0 24 24">
  <g clip-path="url(#a)">
    <path fill="#464646" fill-rule="evenodd" d="M1 3a1 1 0 0 1 1 1v5h5a1 1 0 0 1 0 2H1a1 1 0 0 1-1-1V4a1 1 0 0 1 1-1Z" clip-rule="evenodd"/>
    <path fill="#464646" fill-rule="evenodd" d="M10.605 2.107a10 10 0 1 1-8.038 13.225 1 1 0 1 1 1.886-.664 8 8 0 1 0 1.872-8.3l-4.64 4.36a1 1 0 1 1-1.37-1.457l4.63-4.35a10 10 0 0 1 5.66-2.814Z" clip-rule="evenodd"/>
  </g>
  <defs>
    <clipPath id="a">
      <path fill="#fff" d="M0 0h24v24H0z"/>
    </clipPath>
  </defs>
</svg>
