<svg xmlns="http://www.w3.org/2000/svg" width="24" height="24" fill="none" viewBox="0 0 24 24">
  <g clip-path="url(#a)">
    <path fill="#464646" fill-rule="evenodd" d="M23 3a1 1 0 0 1 1 1v6a1 1 0 0 1-1 1h-6a1 1 0 1 1 0-2h5V4a1 1 0 0 1 1-1Z" clip-rule="evenodd"/>
    <path fill="#464646" fill-rule="evenodd" d="M13.127 4.081a8 8 0 1 0 6.42 10.586 1 1 0 0 1 1.886.666 10 10 0 1 1-2.367-10.41l4.62 4.349a1 1 0 1 1-1.372 1.456l-4.63-4.36a8 8 0 0 0-4.557-2.287Z" clip-rule="evenodd"/>
  </g>
  <defs>
    <clipPath id="a">
      <path fill="#fff" d="M0 0h24v24H0z"/>
    </clipPath>
  </defs>
</svg>
