<svg xmlns="http://www.w3.org/2000/svg" width="24" height="24" fill="none" viewBox="0 0 24 24">
  <path fill="#464646" fill-rule="evenodd" d="M15.78 2.388c-.796 0-1.56.316-2.123.879l-9.19 9.19a5.003 5.003 0 0 0 7.076 7.076l9.19-9.19a1 1 0 0 1 1.414 1.414l-9.19 9.19a7.003 7.003 0 1 1-9.904-9.904l9.19-9.19a5.002 5.002 0 0 1 7.074 7.074l-9.2 9.19a3.001 3.001 0 0 1-4.244-4.244l8.49-8.48a1 1 0 1 1 1.414 1.414l-8.49 8.48a1.003 1.003 0 0 0 .708 1.709 1 1 0 0 0 .708-.293l9.2-9.19a3.003 3.003 0 0 0-2.123-5.125Z" clip-rule="evenodd"/>
</svg>
