<svg xmlns="http://www.w3.org/2000/svg" width="24" height="24" fill="none" viewBox="0 0 24 24">
  <path fill="#464646" fill-rule="evenodd" d="M5 4a1 1 0 0 0-1 1v14a1 1 0 0 0 1 1h14a1 1 0 0 0 1-1V5a1 1 0 0 0-1-1H5ZM2 5a3 3 0 0 1 3-3h14a3 3 0 0 1 3 3v14a3 3 0 0 1-3 3H5a3 3 0 0 1-3-3V5Z" clip-rule="evenodd"/>
  <path fill="#464646" fill-rule="evenodd" d="M8.5 8a.5.5 0 1 0 0 1 .5.5 0 0 0 0-1ZM6 8.5a2.5 2.5 0 1 1 5 0 2.5 2.5 0 0 1-5 0Zm9.293.793a1 1 0 0 1 1.414 0l5 5a1 1 0 0 1-1.414 1.414L16 11.414 5.707 21.707a1 1 0 0 1-1.414-1.414l11-11Z" clip-rule="evenodd"/>
</svg>
