<svg xmlns="http://www.w3.org/2000/svg" width="24" height="24" fill="none" viewBox="0 0 24 24">
  <path fill="#464646" fill-rule="evenodd" d="M6 4a2 2 0 1 0 0 4 2 2 0 0 0 0-4ZM2 6a4 4 0 1 1 8 0 4 4 0 0 1-8 0Zm4 10a2 2 0 1 0 0 4 2 2 0 0 0 0-4Zm-4 2a4 4 0 1 1 8 0 4 4 0 0 1-8 0Z" clip-rule="evenodd"/>
  <path fill="#464646" fill-rule="evenodd" d="M20.707 3.293a1 1 0 0 1 0 1.414l-11.88 11.88a1 1 0 0 1-1.414-1.414l11.88-11.88a1 1 0 0 1 1.414 0Zm-6.945 10.481a1 1 0 0 1 1.414-.002l5.53 5.52a1 1 0 1 1-1.412 1.416l-5.53-5.52a1 1 0 0 1-.002-1.415Z" clip-rule="evenodd"/>
  <path fill="#464646" fill-rule="evenodd" d="M7.413 7.413a1 1 0 0 1 1.414 0l3.88 3.88a1 1 0 0 1-1.414 1.414l-3.88-3.88a1 1 0 0 1 0-1.414Z" clip-rule="evenodd"/>
</svg>
