<svg xmlns="http://www.w3.org/2000/svg" width="24" height="24" fill="none" viewBox="0 0 24 24">
  <path fill="#464646" fill-rule="evenodd" d="M12 3a9 9 0 1 0 0 18 9 9 0 0 0 0-18ZM1 12C1 5.925 5.925 1 12 1s11 4.925 11 11-4.925 11-11 11S1 18.075 1 12Z" clip-rule="evenodd"/>
  <path fill="#464646" fill-rule="evenodd" d="M1 12a1 1 0 0 1 1-1h20a1 1 0 1 1 0 2H2a1 1 0 0 1-1-1Z" clip-rule="evenodd"/>
  <path fill="#464646" fill-rule="evenodd" d="M9 12a14.3 14.3 0 0 0 3 8.449 14.3 14.3 0 0 0 3-8.45 14.301 14.301 0 0 0-3-8.449A14.3 14.3 0 0 0 9 12Zm3-10-.738-.675A16.3 16.3 0 0 0 7 12.02a16.3 16.3 0 0 0 4.262 10.654 1 1 0 0 0 1.476 0A16.3 16.3 0 0 0 17 11.979a16.3 16.3 0 0 0-4.262-10.654L12 2Z" clip-rule="evenodd"/>
</svg>
