<svg xmlns="http://www.w3.org/2000/svg" width="24" height="24" fill="none" viewBox="0 0 24 24">
  <path fill="#464646" fill-rule="evenodd" d="M12 2a8 8 0 0 0-8 8c0 3.098 2.016 6.104 4.226 8.437A29.419 29.419 0 0 0 12 21.773a29.412 29.412 0 0 0 3.774-3.335C17.984 16.103 20 13.097 20 10a8 8 0 0 0-8-8Zm0 21-.555.832-.003-.002-.007-.005-.023-.015a28.518 28.518 0 0 1-1.441-1.074 31.428 31.428 0 0 1-3.197-2.923C4.484 17.396 2 13.902 2 10a10 10 0 0 1 20 0c0 3.902-2.484 7.396-4.774 9.813a31.433 31.433 0 0 1-4.254 3.726 18.887 18.887 0 0 1-.384.27l-.023.016-.007.005-.002.001s-.001.001-.556-.831Zm0 0 .555.832a1 1 0 0 1-1.11 0L12 23Z" clip-rule="evenodd"/>
  <path fill="#464646" fill-rule="evenodd" d="M12 8a2 2 0 1 0 0 4 2 2 0 0 0 0-4Zm-4 2a4 4 0 1 1 8 0 4 4 0 0 1-8 0Z" clip-rule="evenodd"/>
</svg>
