<svg xmlns="http://www.w3.org/2000/svg" width="24" height="24" fill="none" viewBox="0 0 24 24">
  <g clip-path="url(#a)">
    <path fill="#464646" fill-rule="evenodd" d="M7.782 3.242A1 1 0 0 0 7.12 3H4.11a1 1 0 0 0-.995 1.083 18.79 18.79 0 0 0 2.914 8.183 1 1 0 1 1-1.678 1.088 20.79 20.79 0 0 1-3.225-9.066l-.002-.018A3 3 0 0 1 4.109 1h2.997A3 3 0 0 1 10.1 3.58l.001.01c.117.884.333 1.753.645 2.59a2.999 2.999 0 0 1-.675 3.163l-.004.004-1.27 1.27a1 1 0 0 1-1.414-1.414L8.65 7.935a1 1 0 0 0 .224-1.053l-.001-.002a13.84 13.84 0 0 1-.754-3.024 1 1 0 0 0-.337-.614Zm2.896 9.068a1 1 0 0 1 .71.293 15 15 0 0 0 2.548 2.047l.717-.717.004-.004a3 3 0 0 1 3.164-.675c.836.312 1.705.528 2.59.645h.009A3 3 0 0 1 23 16.896v2.993m-12.35-.226a20.422 20.422 0 0 1-3.498-2.805 1 1 0 0 1-.002-1.412l2.82-2.84a1 1 0 0 1 .708-.295m.025 2.396L9.29 16.13c.76.682 1.574 1.3 2.436 1.847l.008.005a18.789 18.789 0 0 0 8.184 2.914 1 1 0 0 0 1.082-1V16.88a1 1 0 0 0-.856-1 13.842 13.842 0 0 1-3.024-.753h-.002a1 1 0 0 0-1.053.223l-1.268 1.267a1 1 0 0 1-1.201.162 17.005 17.005 0 0 1-2.893-2.073Z" clip-rule="evenodd"/>
    <path fill="#464646" fill-rule="evenodd" d="M23.707.293a1 1 0 0 1 0 1.414l-22 22a1 1 0 0 1-1.414-1.414l22-22a1 1 0 0 1 1.414 0Z" clip-rule="evenodd"/>
  </g>
  <defs>
    <clipPath id="a">
      <path fill="#fff" d="M0 0h24v24H0z"/>
    </clipPath>
  </defs>
</svg>
