<svg xmlns="http://www.w3.org/2000/svg" width="24" height="24" fill="none" viewBox="0 0 24 24">
  <g clip-path="url(#a)">
    <path fill="#464646" fill-rule="evenodd" d="M16 1a1 1 0 0 1 1-1h6a1 1 0 0 1 1 1v6a1 1 0 1 1-2 0V2h-5a1 1 0 0 1-1-1Z" clip-rule="evenodd"/>
    <path fill="#464646" fill-rule="evenodd" d="M23.707.293a1 1 0 0 1 0 1.414l-7 7a1 1 0 1 1-1.414-1.414l7-7a1 1 0 0 1 1.414 0Z" clip-rule="evenodd"/>
    <path fill="#464646" fill-rule="evenodd" d="M7.782 3.242A1 1 0 0 0 7.12 3H4.11a1 1 0 0 0-.995 1.084 18.79 18.79 0 0 0 2.914 8.222l.005.008a18.5 18.5 0 0 0 5.692 5.692l.008.005a18.79 18.79 0 0 0 8.184 2.914 1 1 0 0 0 1.082-1v-3.03a1 1 0 0 0-.856-1.014 13.836 13.836 0 0 1-3.023-.754h-.003a1 1 0 0 0-1.053.223l-1.268 1.267a1 1 0 0 1-1.201.162 17 17 0 0 1-6.375-6.375 1 1 0 0 1 .162-1.201L8.65 7.935a1 1 0 0 0 .223-1.053V6.88a13.84 13.84 0 0 1-.755-3.024 1 1 0 0 0-.337-.614ZM7.106 1A3 3 0 0 1 10.1 3.58l.002.01c.116.884.333 1.753.645 2.59a3 3 0 0 1-.676 3.163l-.004.004-.717.717a15 15 0 0 0 4.586 4.586l.717-.717.004-.004a3 3 0 0 1 3.164-.675c.836.312 1.705.528 2.59.645h.009A3 3 0 0 1 23 16.932v2.987" clip-rule="evenodd"/>
  </g>
  <defs>
    <clipPath id="a">
      <path fill="#fff" d="M0 0h24v24H0z"/>
    </clipPath>
  </defs>
</svg>
