<svg xmlns="http://www.w3.org/2000/svg" width="24" height="24" fill="none" viewBox="0 0 24 24">
  <g clip-path="url(#a)">
    <path fill="#464646" fill-rule="evenodd" d="M23 3a1 1 0 0 1 1 1v6a1 1 0 0 1-1 1h-6a1 1 0 1 1 0-2h5V4a1 1 0 0 1 1-1ZM0 14a1 1 0 0 1 1-1h6a1 1 0 1 1 0 2H2v5a1 1 0 1 1-2 0v-6Z" clip-rule="evenodd"/>
    <path fill="#464646" fill-rule="evenodd" d="M14.217 4.317a8 8 0 0 0-9.764 5.017 1 1 0 0 1-1.886-.668 10 10 0 0 1 16.489-3.744l4.629 4.35a1 1 0 0 1-1.37 1.457l-4.64-4.36a8 8 0 0 0-3.458-2.051ZM.271 13.315a1 1 0 0 1 1.414-.044l4.64 4.36.022.022a8 8 0 0 0 13.2-2.986 1 1 0 1 1 1.886.667 10 10 0 0 1-16.489 3.744l-4.629-4.35a1 1 0 0 1-.044-1.413Z" clip-rule="evenodd"/>
  </g>
  <defs>
    <clipPath id="a">
      <path fill="#fff" d="M0 0h24v24H0z"/>
    </clipPath>
  </defs>
</svg>
