<svg xmlns="http://www.w3.org/2000/svg" width="24" height="24" fill="none" viewBox="0 0 24 24">
  <g clip-path="url(#a)">
    <path fill="#464646" fill-rule="evenodd" d="M16.293.293a1 1 0 0 1 1.414 0l4 4a1 1 0 0 1 0 1.414l-4 4a1 1 0 0 1-1.414-1.414L19.586 5l-3.293-3.293a1 1 0 0 1 0-1.414Z" clip-rule="evenodd"/>
    <path fill="#464646" fill-rule="evenodd" d="M7 6a3 3 0 0 0-3 3v2a1 1 0 1 1-2 0V9a5 5 0 0 1 5-5h14a1 1 0 1 1 0 2H7Zm.707 8.293a1 1 0 0 1 0 1.414L4.414 19l3.293 3.293a1 1 0 1 1-1.414 1.414l-4-4a1 1 0 0 1 0-1.414l4-4a1 1 0 0 1 1.414 0Z" clip-rule="evenodd"/>
    <path fill="#464646" fill-rule="evenodd" d="M21 12a1 1 0 0 1 1 1v2a5 5 0 0 1-5 5H3a1 1 0 1 1 0-2h14a3 3 0 0 0 3-3v-2a1 1 0 0 1 1-1Z" clip-rule="evenodd"/>
  </g>
  <defs>
    <clipPath id="a">
      <path fill="#fff" d="M0 0h24v24H0z"/>
    </clipPath>
  </defs>
</svg>
