<svg xmlns="http://www.w3.org/2000/svg" width="24" height="24" fill="none" viewBox="0 0 24 24">
  <path fill="#464646" fill-rule="evenodd" d="M15 3a1 1 0 0 1 1-1h5a1 1 0 0 1 1 1v5a1 1 0 1 1-2 0V4h-4a1 1 0 0 1-1-1Z" clip-rule="evenodd"/>
  <path fill="#464646" fill-rule="evenodd" d="M21.707 2.293a1 1 0 0 1 0 1.414l-17 17a1 1 0 0 1-1.414-1.414l17-17a1 1 0 0 1 1.414 0ZM21 15a1 1 0 0 1 1 1v5a1 1 0 0 1-1 1h-5a1 1 0 1 1 0-2h4v-4a1 1 0 0 1 1-1Z" clip-rule="evenodd"/>
  <path fill="#464646" fill-rule="evenodd" d="M14.293 14.293a1 1 0 0 1 1.414 0l6 6a1 1 0 0 1-1.414 1.414l-6-6a1 1 0 0 1 0-1.414Zm-11-11a1 1 0 0 1 1.414 0l5 5a1 1 0 0 1-1.414 1.414l-5-5a1 1 0 0 1 0-1.414Z" clip-rule="evenodd"/>
</svg>
