<svg xmlns="http://www.w3.org/2000/svg" width="24" height="24" fill="none" viewBox="0 0 24 24">
  <path fill="#464646" fill-rule="evenodd" d="M1 12a1 1 0 0 1 1-1h6a1 1 0 0 1 .832.445L10.535 14h2.93l1.703-2.555A1 1 0 0 1 16 11h6a1 1 0 1 1 0 2h-5.465l-1.703 2.555A1 1 0 0 1 14 16h-4a1 1 0 0 1-.832-.445L7.465 13H2a1 1 0 0 1-1-1Z" clip-rule="evenodd"/>
  <path fill="#464646" fill-rule="evenodd" d="M7.24 3h9.52a3.002 3.002 0 0 1 2.685 1.665l3.45 6.887A1 1 0 0 1 23 12v6a3 3 0 0 1-3 3H4a3 3 0 0 1-3-3v-6a1 1 0 0 1 .106-.448l3.448-6.887.001-.001A3 3 0 0 1 7.24 3ZM5.45 5.11l.894.448L3 12.236V18a1 1 0 0 0 1 1h16a1 1 0 0 0 1-1v-5.764l-3.344-6.678-.002-.003A1 1 0 0 0 16.76 5H7.24a1 1 0 0 0-.894.555L5.45 5.11Z" clip-rule="evenodd"/>
</svg>
