<svg xmlns="http://www.w3.org/2000/svg" width="24" height="24" fill="none" viewBox="0 0 24 24">
  <g clip-path="url(#a)">
    <path fill="#464646" fill-rule="evenodd" d="M.293 5.293a1 1 0 0 1 1.414 0L8.5 12.086l4.293-4.293a1 1 0 0 1 1.414 0l9.5 9.5a1 1 0 0 1-1.414 1.414L13.5 9.914l-4.293 4.293a1 1 0 0 1-1.414 0l-7.5-7.5a1 1 0 0 1 0-1.414Z" clip-rule="evenodd"/>
    <path fill="#464646" fill-rule="evenodd" d="M23 11a1 1 0 0 1 1 1v6a1 1 0 0 1-1 1h-6a1 1 0 1 1 0-2h5v-5a1 1 0 0 1 1-1Z" clip-rule="evenodd"/>
  </g>
  <defs>
    <clipPath id="a">
      <path fill="#fff" d="M0 0h24v24H0z"/>
    </clipPath>
  </defs>
</svg>
