<svg xmlns="http://www.w3.org/2000/svg" width="24" height="24" fill="none" viewBox="0 0 24 24">
  <g clip-path="url(#a)">
    <path fill="#464646" fill-rule="evenodd" d="M23.707 5.293a1 1 0 0 1 0 1.414l-9.5 9.5a1 1 0 0 1-1.414 0L8.5 11.914l-6.793 6.793a1 1 0 0 1-1.414-1.414l7.5-7.5a1 1 0 0 1 1.414 0l4.293 4.293 8.793-8.793a1 1 0 0 1 1.414 0Z" clip-rule="evenodd"/>
    <path fill="#464646" fill-rule="evenodd" d="M16 6a1 1 0 0 1 1-1h6a1 1 0 0 1 1 1v6a1 1 0 1 1-2 0V7h-5a1 1 0 0 1-1-1Z" clip-rule="evenodd"/>
  </g>
  <defs>
    <clipPath id="a">
      <path fill="#fff" d="M0 0h24v24H0z"/>
    </clipPath>
  </defs>
</svg>
