<svg xmlns="http://www.w3.org/2000/svg" width="24" height="24" fill="none" viewBox="0 0 24 24">
  <g clip-path="url(#a)">
    <path fill="#464646" fill-rule="evenodd" d="M12 8a4 4 0 1 0 0 8 4 4 0 0 0 0-8Zm-6 4a6 6 0 1 1 12 0 6 6 0 0 1-12 0Zm6-12a1 1 0 0 1 1 1v2a1 1 0 1 1-2 0V1a1 1 0 0 1 1-1Zm0 20a1 1 0 0 1 1 1v2a1 1 0 1 1-2 0v-2a1 1 0 0 1 1-1ZM3.513 3.513a1 1 0 0 1 1.414 0l1.42 1.42a1 1 0 0 1-1.414 1.414l-1.42-1.42a1 1 0 0 1 0-1.414Zm14.14 14.14a1 1 0 0 1 1.414 0l1.42 1.42a1 1 0 0 1-1.414 1.415l-1.42-1.42a1 1 0 0 1 0-1.415ZM0 12a1 1 0 0 1 1-1h2a1 1 0 1 1 0 2H1a1 1 0 0 1-1-1Zm20 0a1 1 0 0 1 1-1h2a1 1 0 1 1 0 2h-2a1 1 0 0 1-1-1ZM6.347 17.653a1 1 0 0 1 0 1.415l-1.42 1.42a1 1 0 0 1-1.414-1.415l1.42-1.42a1 1 0 0 1 1.414 0Zm14.14-14.14a1 1 0 0 1 0 1.414l-1.42 1.42a1 1 0 1 1-1.414-1.414l1.42-1.42a1 1 0 0 1 1.414 0Z" clip-rule="evenodd"/>
  </g>
  <defs>
    <clipPath id="a">
      <path fill="#fff" d="M0 0h24v24H0z"/>
    </clipPath>
  </defs>
</svg>
