<svg xmlns="http://www.w3.org/2000/svg" width="24" height="24" fill="none" viewBox="0 0 24 24">
  <path fill="#464646" fill-rule="evenodd" d="M7.757 13.757A6 6 0 0 1 18 18a1 1 0 1 1-2 0 4 4 0 1 0-8 0 1 1 0 1 1-2 0 6 6 0 0 1 1.757-4.243ZM12 1a1 1 0 0 1 1 1v7a1 1 0 1 1-2 0V2a1 1 0 0 1 1-1ZM3.513 9.513a1 1 0 0 1 1.414 0l1.42 1.42a1 1 0 1 1-1.414 1.414l-1.42-1.42a1 1 0 0 1 0-1.414ZM0 18a1 1 0 0 1 1-1h2a1 1 0 1 1 0 2H1a1 1 0 0 1-1-1Zm20 0a1 1 0 0 1 1-1h2a1 1 0 1 1 0 2h-2a1 1 0 0 1-1-1Zm.487-8.487a1 1 0 0 1 0 1.414l-1.42 1.42a1 1 0 1 1-1.414-1.414l1.42-1.42a1 1 0 0 1 1.414 0ZM0 22a1 1 0 0 1 1-1h22a1 1 0 1 1 0 2H1a1 1 0 0 1-1-1Z" clip-rule="evenodd"/>
  <path fill="#464646" fill-rule="evenodd" d="M11.293 1.293a1 1 0 0 1 1.414 0l4 4a1 1 0 0 1-1.414 1.414L12 3.414 8.707 6.707a1 1 0 0 1-1.414-1.414l4-4Z" clip-rule="evenodd"/>
</svg>
