<svg xmlns="http://www.w3.org/2000/svg" width="24" height="24" fill="none" viewBox="0 0 24 24">
  <g clip-path="url(#a)">
    <path fill="#464646" fill-rule="evenodd" d="M3.894 4.134a12.05 12.05 0 0 1 20.101 7.771A1 1 0 0 1 23 13H13v6a2 2 0 0 0 4 0 1 1 0 1 1 2 0 4 4 0 1 1-8 0v-6H1a1 1 0 0 1-.995-1.095 12.05 12.05 0 0 1 3.89-7.771ZM21.84 11a10.05 10.05 0 0 0-19.68 0h19.68Z" clip-rule="evenodd"/>
  </g>
  <defs>
    <clipPath id="a">
      <path fill="#fff" d="M0 0h24v24H0z"/>
    </clipPath>
  </defs>
</svg>
