<svg xmlns="http://www.w3.org/2000/svg" width="24" height="24" fill="none" viewBox="0 0 24 24">
  <g clip-path="url(#a)">
    <path fill="#464646" fill-rule="evenodd" d="M3 6a1 1 0 0 0-1 1v10a1 1 0 0 0 1 1h11a1 1 0 0 0 1-1v-.586L4.586 6H3ZM.879 4.879A3 3 0 0 1 3 4h2a1 1 0 0 1 .707.293l11 11A1 1 0 0 1 17 16v1a3 3 0 0 1-3 3H3a3 3 0 0 1-3-3V7a3 3 0 0 1 .879-2.121ZM14 6h-3.34a1 1 0 1 1 0-2H14a3 3 0 0 1 3 3v2.926l.105.104 5.309-3.84A1 1 0 0 1 24 7v10a1 1 0 1 1-2 0V8.958l-4.414 3.192a1 1 0 0 1-1.293-.103l-1-1A1 1 0 0 1 15 10.34V7a1 1 0 0 0-1-1Z" clip-rule="evenodd"/>
    <path fill="#464646" fill-rule="evenodd" d="M.293.293a1 1 0 0 1 1.414 0l22 22a1 1 0 0 1-1.414 1.414l-22-22a1 1 0 0 1 0-1.414Z" clip-rule="evenodd"/>
  </g>
  <defs>
    <clipPath id="a">
      <path fill="#fff" d="M0 0h24v24H0z"/>
    </clipPath>
  </defs>
</svg>
