<svg xmlns="http://www.w3.org/2000/svg" width="24" height="24" fill="none" viewBox="0 0 24 24">
  <path fill="#464646" fill-rule="evenodd" d="M23.458 6.11A1 1 0 0 1 24 7v10a1 1 0 0 1-1.581.814l-7-5a1 1 0 0 1 0-1.628l7-5a1 1 0 0 1 1.039-.075ZM17.72 12 22 15.057V8.943L17.72 12Z" clip-rule="evenodd"/>
  <path fill="#464646" fill-rule="evenodd" d="M3 6a1 1 0 0 0-1 1v10a1 1 0 0 0 1 1h11a1 1 0 0 0 1-1V7a1 1 0 0 0-1-1H3ZM0 7a3 3 0 0 1 3-3h11a3 3 0 0 1 3 3v10a3 3 0 0 1-3 3H3a3 3 0 0 1-3-3V7Z" clip-rule="evenodd"/>
</svg>
