<svg xmlns="http://www.w3.org/2000/svg" width="24" height="24" fill="none" viewBox="0 0 24 24">
  <g clip-path="url(#a)">
    <path fill="#464646" fill-rule="evenodd" d="M7.247 3.341A1 1 0 0 1 8 3h13a3 3 0 0 1 3 3v12a3 3 0 0 1-3 3H8a1 1 0 0 1-.753-.341l-7-8a1 1 0 0 1 0-1.318l7-8ZM8.454 5l-6.125 7 6.125 7H21a1 1 0 0 0 1-1V6a1 1 0 0 0-1-1H8.454Z" clip-rule="evenodd"/>
    <path fill="#464646" fill-rule="evenodd" d="M18.707 8.293a1 1 0 0 1 0 1.414l-6 6a1 1 0 0 1-1.414-1.414l6-6a1 1 0 0 1 1.414 0Z" clip-rule="evenodd"/>
    <path fill="#464646" fill-rule="evenodd" d="M11.293 8.293a1 1 0 0 1 1.414 0l6 6a1 1 0 0 1-1.414 1.414l-6-6a1 1 0 0 1 0-1.414Z" clip-rule="evenodd"/>
  </g>
  <defs>
    <clipPath id="a">
      <path fill="#fff" d="M0 0h24v24H0z"/>
    </clipPath>
  </defs>
</svg>
