<svg xmlns="http://www.w3.org/2000/svg" width="24" height="24" fill="none" viewBox="0 0 24 24">
  <path fill="#464646" fill-rule="evenodd" d="M18 3a2 2 0 1 0 0 4 2 2 0 0 0 0-4Zm-4 2a4 4 0 1 1 8 0 4 4 0 0 1-8 0Zm-8 5a2 2 0 1 0 0 4 2 2 0 0 0 0-4Zm-4 2a4 4 0 1 1 8 0 4 4 0 0 1-8 0Zm16 5a2 2 0 1 0 0 4 2 2 0 0 0 0-4Zm-4 2a4 4 0 1 1 8 0 4 4 0 0 1-8 0Z" clip-rule="evenodd"/>
  <path fill="#464646" fill-rule="evenodd" d="M7.726 13.007a1 1 0 0 1 1.367-.361l6.83 3.98a1 1 0 1 1-1.007 1.728l-6.83-3.98a1 1 0 0 1-.36-1.367Zm8.548-7.001a1 1 0 0 1-.36 1.368l-6.82 3.98a1 1 0 1 1-1.008-1.728l6.82-3.98a1 1 0 0 1 1.368.36Z" clip-rule="evenodd"/>
</svg>
