<svg xmlns="http://www.w3.org/2000/svg" width="24" height="24" fill="none" viewBox="0 0 24 24">
  <path fill="#464646" fill-rule="evenodd" d="M4 11a1 1 0 0 1 1 1v8a1 1 0 0 0 1 1h12a1 1 0 0 0 1-1v-8a1 1 0 1 1 2 0v8a3 3 0 0 1-3 3H6a3 3 0 0 1-3-3v-8a1 1 0 0 1 1-1Zm7.293-9.707a1 1 0 0 1 1.414 0l4 4a1 1 0 0 1-1.414 1.414L12 3.414 8.707 6.707a1 1 0 0 1-1.414-1.414l4-4Z" clip-rule="evenodd"/>
  <path fill="#464646" fill-rule="evenodd" d="M12 1a1 1 0 0 1 1 1v13a1 1 0 1 1-2 0V2a1 1 0 0 1 1-1Z" clip-rule="evenodd"/>
</svg>
