<svg xmlns="http://www.w3.org/2000/svg" width="24" height="24" fill="none" viewBox="0 0 24 24">
  <path fill="#464646" fill-rule="evenodd" d="M4 13a1 1 0 0 1 1 1v7a1 1 0 1 1-2 0v-7a1 1 0 0 1 1-1ZM4 2a1 1 0 0 1 1 1v7a1 1 0 1 1-2 0V3a1 1 0 0 1 1-1Zm8 9a1 1 0 0 1 1 1v9a1 1 0 1 1-2 0v-9a1 1 0 0 1 1-1Zm0-9a1 1 0 0 1 1 1v5a1 1 0 1 1-2 0V3a1 1 0 0 1 1-1Zm8 13a1 1 0 0 1 1 1v5a1 1 0 1 1-2 0v-5a1 1 0 0 1 1-1Zm0-13a1 1 0 0 1 1 1v9a1 1 0 1 1-2 0V3a1 1 0 0 1 1-1Z" clip-rule="evenodd"/>
  <path fill="#464646" fill-rule="evenodd" d="M0 14a1 1 0 0 1 1-1h6a1 1 0 1 1 0 2H1a1 1 0 0 1-1-1Zm8-6a1 1 0 0 1 1-1h6a1 1 0 1 1 0 2H9a1 1 0 0 1-1-1Zm8 8a1 1 0 0 1 1-1h6a1 1 0 1 1 0 2h-6a1 1 0 0 1-1-1Z" clip-rule="evenodd"/>
</svg>
