<svg xmlns="http://www.w3.org/2000/svg" width="24" height="24" fill="none" viewBox="0 0 24 24">
  <path fill="#464646" fill-rule="evenodd" d="M12 3a2 2 0 1 0 0 4 2 2 0 0 0 0-4ZM8 5a4 4 0 1 1 8 0 4 4 0 0 1-8 0Z" clip-rule="evenodd"/>
  <path fill="#464646" fill-rule="evenodd" d="M12 7a1 1 0 0 1 1 1v14a1 1 0 1 1-2 0V8a1 1 0 0 1 1-1Z" clip-rule="evenodd"/>
  <path fill="#464646" fill-rule="evenodd" d="M1.293 11.293A1 1 0 0 1 2 11h3a1 1 0 1 1 0 2H3.056a9 9 0 0 0 17.888 0H19a1 1 0 1 1 0-2h3a1 1 0 0 1 1 1 11 11 0 1 1-22 0 1 1 0 0 1 .293-.707Z" clip-rule="evenodd"/>
</svg>
