<svg xmlns="http://www.w3.org/2000/svg" width="24" height="24" fill="none" viewBox="0 0 24 24">
  <path fill="#464646" fill-rule="evenodd" d="M10.502 1.403a3 3 0 0 1 2.996 0h.002l7 4A3 3 0 0 1 22 8v8a3 3 0 0 1-1.5 2.595l-.004.002-6.996 3.998-.002.001a3 3 0 0 1-2.996 0l-.002-.001-6.996-3.998-.004-.002A3 3 0 0 1 2 16V7.999a3 3 0 0 1 1.5-2.595l.004-.002 6.998-4ZM12 3.002a1 1 0 0 0-.5.134l-.004.002L4.5 7.136h-.002A1 1 0 0 0 4 8.002V16a1 1 0 0 0 .498.864H4.5l7 4a1 1 0 0 0 1 0l.004-.001 6.996-3.998.002-.001A1.001 1.001 0 0 0 20 16V8a1 1 0 0 0-.498-.864l-.002-.001-7-4a1 1 0 0 0-.5-.134Z" clip-rule="evenodd"/>
  <path fill="#464646" fill-rule="evenodd" d="M2.404 6.46a1 1 0 0 1 1.367-.365L12 10.855l8.23-4.76a1 1 0 1 1 1 1.73l-8.73 5.05a1 1 0 0 1-1 0l-8.73-5.05a1 1 0 0 1-.366-1.366Z" clip-rule="evenodd"/>
  <path fill="#464646" fill-rule="evenodd" d="M12 11a1 1 0 0 1 1 1v10.08a1 1 0 1 1-2 0V12a1 1 0 0 1 1-1Z" clip-rule="evenodd"/>
</svg>
