<svg xmlns="http://www.w3.org/2000/svg" width="24" height="24" fill="none" viewBox="0 0 24 24">
  <path fill="#464646" fill-rule="evenodd" d="M4 8a1 1 0 0 0-1 1v10a1 1 0 0 0 1 1h16a1 1 0 0 0 1-1V9a1 1 0 0 0-1-1H4ZM1 9a3 3 0 0 1 3-3h16a3 3 0 0 1 3 3v10a3 3 0 0 1-3 3H4a3 3 0 0 1-3-3V9Z" clip-rule="evenodd"/>
  <path fill="#464646" fill-rule="evenodd" d="M7.879 2.879A3 3 0 0 1 10 2h4a3 3 0 0 1 3 3v16a1 1 0 1 1-2 0V5a1 1 0 0 0-1-1h-4a1 1 0 0 0-1 1v16a1 1 0 1 1-2 0V5a3 3 0 0 1 .879-2.121Z" clip-rule="evenodd"/>
</svg>
