<svg xmlns="http://www.w3.org/2000/svg" width="24" height="24" fill="none" viewBox="0 0 24 24">
  <path fill="#464646" fill-rule="evenodd" d="M17 8a1 1 0 0 1 1-1h1a5 5 0 1 1 0 10h-1a1 1 0 1 1 0-2h1a3 3 0 0 0 0-6h-1a1 1 0 0 1-1-1Z" clip-rule="evenodd"/>
  <path fill="#464646" fill-rule="evenodd" d="M1 8a1 1 0 0 1 1-1h16a1 1 0 0 1 1 1v9a5 5 0 0 1-5 5H6a5 5 0 0 1-5-5V8Zm2 1v8a3 3 0 0 0 3 3h8a3 3 0 0 0 3-3V9H3Zm3-9a1 1 0 0 1 1 1v3a1 1 0 0 1-2 0V1a1 1 0 0 1 1-1Zm4 0a1 1 0 0 1 1 1v3a1 1 0 1 1-2 0V1a1 1 0 0 1 1-1Zm4 0a1 1 0 0 1 1 1v3a1 1 0 1 1-2 0V1a1 1 0 0 1 1-1Z" clip-rule="evenodd"/>
</svg>
