<svg xmlns="http://www.w3.org/2000/svg" width="24" height="24" fill="none" viewBox="0 0 24 24">
  <path fill="#464646" fill-rule="evenodd" d="M21.707 1.293a1 1 0 0 1 0 1.414L20.414 4l2.293 2.293a1 1 0 0 1 0 1.414l-3.5 3.5a1 1 0 0 1-1.414 0L15.5 8.914l-2.746 2.747A6.5 6.5 0 0 1 2.9 20.09l-.007-.008a6.5 6.5 0 0 1 8.43-9.821l8.97-8.97a1 1 0 0 1 1.414 0ZM19 5.414 16.914 7.5 18.5 9.086 20.586 7 19 5.414Zm-6.904 6.904a1 1 0 0 1-1.374.038l-.027-.027-.007-.007.7-.71m-7.06 7.077a4.5 4.5 0 0 1 6.394-6.333 4.5 4.5 0 1 1-6.394 6.333Zm0 0a.134.134 0 0 1 .003.004l-.719.695.712-.702.004.003Zm7.768-6.37.001-.002Z" clip-rule="evenodd"/>
</svg>
