<svg xmlns="http://www.w3.org/2000/svg" width="24" height="24" fill="none" viewBox="0 0 24 24">
  <path fill="#464646" fill-rule="evenodd" d="M12 3a9 9 0 1 0 0 18 9 9 0 0 0 0-18ZM1 12C1 5.925 5.925 1 12 1s11 4.925 11 11-4.925 11-11 11S1 18.075 1 12Z" clip-rule="evenodd"/>
  <path fill="#464646" fill-rule="evenodd" d="M12 9a3 3 0 1 0 0 6 3 3 0 0 0 0-6Zm-5 3a5 5 0 1 1 10 0 5 5 0 0 1-10 0Z" clip-rule="evenodd"/>
  <path fill="#464646" fill-rule="evenodd" d="M4.223 4.223a1 1 0 0 1 1.414 0l4.24 4.24a1 1 0 1 1-1.414 1.414l-4.24-4.24a1 1 0 0 1 0-1.414Zm9.9 9.9a1 1 0 0 1 1.414 0l4.24 4.24a1 1 0 0 1-1.414 1.414l-4.24-4.24a1 1 0 0 1 0-1.414Zm5.654-9.9a1 1 0 0 1 0 1.414l-4.24 4.24a1 1 0 0 1-1.414-1.414l4.24-4.24a1 1 0 0 1 1.414 0Z" clip-rule="evenodd"/>
  <path fill="#464646" fill-rule="evenodd" d="M19.067 4.933a1 1 0 0 1 0 1.414l-3.53 3.53a1 1 0 0 1-1.414-1.414l3.53-3.53a1 1 0 0 1 1.414 0Zm-9.19 9.19a1 1 0 0 1 0 1.414l-4.24 4.24a1 1 0 0 1-1.414-1.414l4.24-4.24a1 1 0 0 1 1.414 0Z" clip-rule="evenodd"/>
</svg>
