<svg xmlns="http://www.w3.org/2000/svg" width="24" height="24" fill="none" viewBox="0 0 24 24">
  <path fill="#464646" fill-rule="evenodd" d="M12 1a1 1 0 0 1 1 1v4a1 1 0 1 1-2 0V2a1 1 0 0 1 1-1Zm0 16a1 1 0 0 1 1 1v4a1 1 0 1 1-2 0v-4a1 1 0 0 1 1-1ZM4.223 4.223a1 1 0 0 1 1.414 0l2.83 2.83a1 1 0 0 1-1.414 1.414l-2.83-2.83a1 1 0 0 1 0-1.414Zm11.31 11.31a1 1 0 0 1 1.414 0l2.83 2.83a1 1 0 0 1-1.414 1.414l-2.83-2.83a1 1 0 0 1 0-1.414ZM1 12a1 1 0 0 1 1-1h4a1 1 0 1 1 0 2H2a1 1 0 0 1-1-1Zm16 0a1 1 0 0 1 1-1h4a1 1 0 1 1 0 2h-4a1 1 0 0 1-1-1Zm-8.533 3.533a1 1 0 0 1 0 1.414l-2.83 2.83a1 1 0 1 1-1.414-1.414l2.83-2.83a1 1 0 0 1 1.414 0Zm11.31-11.31a1 1 0 0 1 0 1.414l-2.83 2.83a1 1 0 1 1-1.414-1.414l2.83-2.83a1 1 0 0 1 1.414 0Z" clip-rule="evenodd"/>
</svg>
