<svg xmlns="http://www.w3.org/2000/svg" width="24" height="24" fill="none" viewBox="0 0 24 24">
  <path fill="#464646" fill-rule="evenodd" d="M2.293 2.293a1 1 0 0 1 1.092-.216l16.97 7.07a1 1 0 0 1-.063 1.87l-6.924 2.351-2.351 6.924a1 1 0 0 1-1.87.063l-7.07-16.97a1 1 0 0 1 .216-1.092Zm2.564 2.564 5.118 12.284 1.658-4.883a1 1 0 0 1 .625-.625l4.883-1.658L4.857 4.857Z" clip-rule="evenodd"/>
  <path fill="#464646" fill-rule="evenodd" d="M12.293 12.293a1 1 0 0 1 1.414 0l6 6a1 1 0 0 1-1.414 1.414l-6-6a1 1 0 0 1 0-1.414Z" clip-rule="evenodd"/>
</svg>
