<svg xmlns="http://www.w3.org/2000/svg" width="24" height="24" fill="none" viewBox="0 0 24 24">
  <path fill="#464646" fill-rule="evenodd" d="M16.558 3.028a5 5 0 0 0-5.117 7.03 1 1 0 0 1-.204 1.119l-6.91 6.91a1.121 1.121 0 0 0 1.586 1.586l6.91-6.91a1 1 0 0 1 1.12-.204 5 5 0 0 0 7.029-5.117L18.4 10.014a2 2 0 0 1-2.8 0l-.007-.007L13.986 8.4a2 2 0 0 1 0-2.8l.007-.007 2.565-2.565Zm-1.816-1.919a7 7 0 0 1 4.14.51 1 1 0 0 1 .295 1.618L15.414 7 17 8.586l3.763-3.763a1 1 0 0 1 1.618.294 7 7 0 0 1-8.606 9.522l-6.448 6.448a3.121 3.121 0 1 1-4.414-4.414l6.448-6.448a7 7 0 0 1 5.38-9.116Z" clip-rule="evenodd"/>
</svg>
