<svg xmlns="http://www.w3.org/2000/svg" width="24" height="24" fill="none" viewBox="0 0 24 24">
  <path fill="#464646" fill-rule="evenodd" d="M0 3a1 1 0 0 1 1-1h15a1 1 0 0 1 1 1v13a1 1 0 0 1-1 1H1a1 1 0 0 1-1-1V3Zm2 1v11h13V4H2Z" clip-rule="evenodd"/>
  <path fill="#464646" fill-rule="evenodd" d="M15 8a1 1 0 0 1 1-1h4a1 1 0 0 1 .707.293l3 3A1 1 0 0 1 24 11v5a1 1 0 0 1-1 1h-7a1 1 0 0 1-1-1V8Zm2 1v6h5v-3.586L19.586 9H17ZM5.5 17a1.5 1.5 0 1 0 0 3 1.5 1.5 0 0 0 0-3ZM2 18.5a3.5 3.5 0 1 1 7 0 3.5 3.5 0 0 1-7 0Z" clip-rule="evenodd"/>
  <path fill="#464646" fill-rule="evenodd" d="M18.5 17a1.5 1.5 0 1 0 0 3 1.5 1.5 0 0 0 0-3ZM15 18.5a3.5 3.5 0 1 1 7 0 3.5 3.5 0 0 1-7 0Z" clip-rule="evenodd"/>
</svg>
