<svg xmlns="http://www.w3.org/2000/svg" width="24" height="24" fill="none" viewBox="0 0 24 24">
  <path fill="#464646" fill-rule="evenodd" d="M12 6a6 6 0 1 0 0 12 6 6 0 0 0 0-12Zm-8 6a8 8 0 1 1 16 0 8 8 0 0 1-16 0Z" clip-rule="evenodd"/>
  <path fill="#464646" fill-rule="evenodd" d="M12 8a1 1 0 0 1 1 1v2.586l1.207 1.207a1 1 0 0 1-1.414 1.414l-1.5-1.5A1 1 0 0 1 11 12V9a1 1 0 0 1 1-1Zm2.861-5.74a1 1 0 0 0-.677-.26H9.83a1 1 0 0 0-.994.91l-.35 3.831a1 1 0 0 1-1.992-.182l.35-3.829A3.001 3.001 0 0 1 9.83 0h4.35m.682 2.26a1 1 0 0 1 .323.65Zm2.315.47v-.001Zm0 0 .35 3.829a1 1 0 1 1-1.992.182l-.35-3.831M7.39 16.354a1 1 0 0 1 1.087.905l.35 3.831a1 1 0 0 0 1 .91h4.337a1 1 0 0 0 1-.91l.35-3.831a1 1 0 0 1 1.992.182l-.35 3.829v.001m-9.767-4.917a1 1 0 0 0-.905 1.087Zm-.905 1.087.35 3.829Zm.35 3.829ZM9.832 24H9.83v-1l.004 1h-.002Zm0 0h4.326Z" clip-rule="evenodd"/>
</svg>
