<svg xmlns="http://www.w3.org/2000/svg" width="24" height="24" fill="none" viewBox="0 0 24 24">
  <path fill="#464646" fill-rule="evenodd" d="M3 14a1 1 0 0 1 1 1v4a1 1 0 0 0 1 1h14a1 1 0 0 0 1-1v-4a1 1 0 1 1 2 0v4a3 3 0 0 1-3 3H5a3 3 0 0 1-3-3v-4a1 1 0 0 1 1-1Zm8.293-11.707a1 1 0 0 1 1.414 0l5 5a1 1 0 0 1-1.414 1.414L12 4.414 7.707 8.707a1 1 0 0 1-1.414-1.414l5-5Z" clip-rule="evenodd"/>
  <path fill="#464646" fill-rule="evenodd" d="M12 2a1 1 0 0 1 1 1v12a1 1 0 1 1-2 0V3a1 1 0 0 1 1-1Z" clip-rule="evenodd"/>
</svg>
