<svg xmlns="http://www.w3.org/2000/svg" width="24" height="24" fill="none" viewBox="0 0 24 24">
  <g clip-path="url(#a)">
    <path fill="#464646" fill-rule="evenodd" d="M11.293 11.293a1 1 0 0 1 1.414 0l4 4a1 1 0 0 1-1.414 1.414L12 13.414l-3.293 3.293a1 1 0 0 1-1.414-1.414l4-4Z" clip-rule="evenodd"/>
    <path fill="#464646" fill-rule="evenodd" d="M12 11a1 1 0 0 1 1 1v9a1 1 0 1 1-2 0v-9a1 1 0 0 1 1-1Z" clip-rule="evenodd"/>
    <path fill="#464646" fill-rule="evenodd" d="M8.663 2.009A9 9 0 0 1 17.48 8H18a6.002 6.002 0 0 1 5.497 8.399 6 6 0 0 1-2.628 2.87 1 1 0 0 1-.958-1.756A4 4 0 0 0 18 10h-1.26a1 1 0 0 1-.968-.75 7 7 0 1 0-12.023 6.388 1 1 0 1 1-1.498 1.325A9 9 0 0 1 8.663 2.009Z" clip-rule="evenodd"/>
    <path fill="#464646" fill-rule="evenodd" d="M11.293 11.293a1 1 0 0 1 1.414 0l4 4a1 1 0 0 1-1.414 1.414L12 13.414l-3.293 3.293a1 1 0 0 1-1.414-1.414l4-4Z" clip-rule="evenodd"/>
  </g>
  <defs>
    <clipPath id="a">
      <path fill="#fff" d="M0 0h24v24H0z"/>
    </clipPath>
  </defs>
</svg>
