<svg xmlns="http://www.w3.org/2000/svg" width="24" height="24" fill="none" viewBox="0 0 24 24">
  <path fill="#464646" fill-rule="evenodd" d="M5.2 1.4A1 1 0 0 1 6 1h12a1 1 0 0 1 .8.4l3 4a1 1 0 0 1 .2.6v14a3 3 0 0 1-3 3H5a3 3 0 0 1-3-3V6a1 1 0 0 1 .2-.6l3-4ZM6.5 3 4 6.333V20a1 1 0 0 0 1 1h14a1 1 0 0 0 1-1V6.333L17.5 3h-11Z" clip-rule="evenodd"/>
  <path fill="#464646" fill-rule="evenodd" d="M2 6a1 1 0 0 1 1-1h18a1 1 0 1 1 0 2H3a1 1 0 0 1-1-1Zm6 3a1 1 0 0 1 1 1 3 3 0 0 0 6 0 1 1 0 1 1 2 0 5 5 0 1 1-10 0 1 1 0 0 1 1-1Z" clip-rule="evenodd"/>
</svg>
