<svg xmlns="http://www.w3.org/2000/svg" width="24" height="24" fill="none" viewBox="0 0 24 24">
  <path fill="#464646" fill-rule="evenodd" d="M1 2a1 1 0 0 1 1-1h10a1 1 0 0 1 .707.293L21.3 9.885a3 3 0 0 1 0 4.23l-.709-.705.707.707-7.17 7.17a3.002 3.002 0 0 1-4.244 0l-8.59-8.58A1 1 0 0 1 1 12V2Zm18.88 10.705h.002a1 1 0 0 0 0-1.41h-.001L11.586 3H3v8.585l8.297 8.287v.001a1 1 0 0 0 1.415 0l7.169-7.168Z" clip-rule="evenodd"/>
  <path fill="#464646" fill-rule="evenodd" d="M6 7a1 1 0 0 1 1-1h.01a1 1 0 1 1 0 2H7a1 1 0 0 1-1-1Z" clip-rule="evenodd"/>
</svg>
