<svg xmlns="http://www.w3.org/2000/svg" width="24" height="24" fill="none" viewBox="0 0 24 24">
  <path fill="#464646" fill-rule="evenodd" d="M12 3a9 9 0 1 0 0 18 9 9 0 0 0 0-18ZM1 12C1 5.925 5.925 1 12 1s11 4.925 11 11-4.925 11-11 11S1 18.075 1 12Z" clip-rule="evenodd"/>
  <path fill="#464646" fill-rule="evenodd" d="M8.474 14.191c.798-.58 2-1.191 3.526-1.191 1.525 0 2.728.61 3.526 1.191a6.944 6.944 0 0 1 1.17 1.08c.03.035.053.064.07.086l.022.027.007.01.003.003.001.002s.001.001-.784.59l.785-.589a1 1 0 0 1-1.597 1.204l-.005-.006a3.669 3.669 0 0 0-.194-.219 4.951 4.951 0 0 0-.655-.57C13.772 15.389 12.974 15 12 15c-.975 0-1.772.39-2.35.809a4.952 4.952 0 0 0-.815.748l-.034.041M8 16l-.8-.6.001-.001.001-.002.003-.004.007-.009.021-.027.07-.086a6.942 6.942 0 0 1 1.171-1.08M8 9a1 1 0 0 1 1-1h.01a1 1 0 1 1 0 2H9a1 1 0 0 1-1-1Zm6 0a1 1 0 0 1 1-1h.01a1 1 0 1 1 0 2H15a1 1 0 0 1-1-1Z" clip-rule="evenodd"/>
</svg>
