<svg xmlns="http://www.w3.org/2000/svg" width="24" height="24" fill="none" viewBox="0 0 24 24">
  <path fill="#464646" fill-rule="evenodd" d="M11.44 4.102A1 1 0 0 1 12 5v14a1 1 0 0 1-1.614.79l-9-7a1 1 0 0 1 0-1.58l9-7a1 1 0 0 1 1.053-.108ZM3.628 12 10 16.955v-9.91L3.629 12Z" clip-rule="evenodd"/>
  <path fill="#464646" fill-rule="evenodd" d="M22.44 4.102A1 1 0 0 1 23 5v14a1 1 0 0 1-1.614.79l-9-7a1 1 0 0 1 0-1.58l9-7a1 1 0 0 1 1.053-.108ZM14.628 12 21 16.955v-9.91L14.629 12Z" clip-rule="evenodd"/>
</svg>
