<svg xmlns="http://www.w3.org/2000/svg" width="24" height="24" fill="none" viewBox="0 0 24 24">
  <path fill="#464646" fill-rule="evenodd" d="M12.56 4.102a1 1 0 0 1 1.054.109l9 7a1 1 0 0 1 0 1.578l-9 7A1 1 0 0 1 12 19V5a1 1 0 0 1 .56-.898ZM14 7.045v9.91L20.371 12 14 7.045Z" clip-rule="evenodd"/>
  <path fill="#464646" fill-rule="evenodd" d="M1.56 4.102a1 1 0 0 1 1.054.109l9 7a1 1 0 0 1 0 1.578l-9 7A1 1 0 0 1 1 19V5a1 1 0 0 1 .56-.898ZM3 7.045v9.91L9.371 12 3 7.045Z" clip-rule="evenodd"/>
</svg>
