<svg xmlns="http://www.w3.org/2000/svg" width="24" height="24" fill="none" viewBox="0 0 24 24">
  <path fill="#464646" fill-rule="evenodd" d="M12 4a8 8 0 0 0-8 8v6a1 1 0 1 1-2 0v-6a10 10 0 0 1 20 0v6a1 1 0 1 1-2 0v-6a8 8 0 0 0-8-8Z" clip-rule="evenodd"/>
  <path fill="#464646" fill-rule="evenodd" d="M2 14a1 1 0 0 1 1-1h3a3 3 0 0 1 3 3v3a3 3 0 0 1-3 3H5a3 3 0 0 1-3-3v-5Zm2 1v4a1 1 0 0 0 1 1h1a1 1 0 0 0 1-1v-3a1 1 0 0 0-1-1H4Zm14 0a1 1 0 0 0-1 1v3a1 1 0 0 0 1 1h1a1 1 0 0 0 1-1v-4h-2Zm-2.121-1.121A3 3 0 0 1 18 13h3a1 1 0 0 1 1 1v5a3 3 0 0 1-3 3h-1a3 3 0 0 1-3-3v-3a3 3 0 0 1 .879-2.121Z" clip-rule="evenodd"/>
</svg>
