<svg xmlns="http://www.w3.org/2000/svg" width="24" height="24" fill="none" viewBox="0 0 24 24">
  <path fill="#464646" fill-rule="evenodd" d="M12.497 4a7.38 7.38 0 0 0-3.346.793l-.004.002A7.5 7.5 0 0 0 5 11.5v.003a7.38 7.38 0 0 0 .793 3.346 1 1 0 0 1 .056.767L4.58 19.42l3.803-1.268a1 1 0 0 1 .767.056 7.379 7.379 0 0 0 3.346.793h.003a7.5 7.5 0 0 0 6.706-4.147l.001-.004A7.379 7.379 0 0 0 20 11.503v-.475A7.48 7.48 0 0 0 12.972 4h-.475Zm.004-2a9.38 9.38 0 0 0-4.25 1.006A9.5 9.5 0 0 0 3 11.5a9.38 9.38 0 0 0 .824 3.867L2.05 20.684a1 1 0 0 0 1.265 1.265l5.318-1.773A9.378 9.378 0 0 0 12.5 21" clip-rule="evenodd"/>
</svg>
