<svg xmlns="http://www.w3.org/2000/svg" width="24" height="24" fill="none" viewBox="0 0 24 24">
  <g clip-path="url(#a)">
    <path fill="#464646" fill-rule="evenodd" d="M11.65 1.063a1 1 0 0 1 .701 0l8 3A1 1 0 0 1 21 5v7.007a7.896 7.896 0 0 1-.355 2.29 1 1 0 1 1-1.91-.593A5.897 5.897 0 0 0 19 11.997V5.693l-7-2.625-2.81 1.049a1 1 0 0 1-.7-1.874l3.16-1.18Zm-5.982 3.32a1 1 0 0 1-.591 1.285L5 5.696V12c0 2.553 1.718 4.8 3.659 6.497a20.69 20.69 0 0 0 3.34 2.365 19.29 19.29 0 0 0 4.877-3.91 1 1 0 0 1 1.488 1.336 21.291 21.291 0 0 1-5.897 4.596 1 1 0 0 1-.914.01L12 22l-.447.894-.004-.002-.006-.003-.022-.01-.076-.04a21.071 21.071 0 0 1-1.225-.71 22.678 22.678 0 0 1-2.879-2.127C5.281 18.2 3 15.446 3 12V5a1 1 0 0 1 .653-.938l.73-.27a1 1 0 0 1 1.285.59Z" clip-rule="evenodd"/>
    <path fill="#464646" fill-rule="evenodd" d="M.293.293a1 1 0 0 1 1.414 0l22 22a1 1 0 0 1-1.414 1.414l-22-22a1 1 0 0 1 0-1.414Z" clip-rule="evenodd"/>
  </g>
  <defs>
    <clipPath id="a">
      <path fill="#fff" d="M0 0h24v24H0z"/>
    </clipPath>
  </defs>
</svg>
