<svg xmlns="http://www.w3.org/2000/svg" width="24" height="24" fill="none" viewBox="0 0 24 24">
  <path fill="#464646" fill-rule="evenodd" d="M1 3a1 1 0 0 1 1-1h6a5 5 0 0 1 5 5v14a1 1 0 1 1-2 0 2 2 0 0 0-2-2H2a1 1 0 0 1-1-1V3Zm10 14.536V7a3 3 0 0 0-3-3H3v13h6a4 4 0 0 1 2 .536Z" clip-rule="evenodd"/>
  <path fill="#464646" fill-rule="evenodd" d="M12.464 3.464A5 5 0 0 1 16 2h6a1 1 0 0 1 1 1v15a1 1 0 0 1-1 1h-7a2 2 0 0 0-2 2 1 1 0 1 1-2 0V7a5 5 0 0 1 1.464-3.536ZM13 17.536A4 4 0 0 1 15 17h6V4h-5a3 3 0 0 0-3 3v10.536Z" clip-rule="evenodd"/>
</svg>
