<svg xmlns="http://www.w3.org/2000/svg" width="24" height="24" fill="none" viewBox="0 0 24 24">
  <g clip-path="url(#a)">
    <path fill="#464646" fill-rule="evenodd" d="M13.398 1.082a1 1 0 0 1 .594 1.041l-.59 4.75a1 1 0 1 1-1.984-.246l.17-1.366-.25.299a1 1 0 1 1-1.537-1.28l2.43-2.92a1 1 0 0 1 1.167-.278ZM14.66 10a1 1 0 0 1 1-1H21a1 1 0 0 1 .768 1.641l-2.43 2.91a1 1 0 1 1-1.536-1.282L18.862 11H15.66a1 1 0 0 1-1-1ZM8.64 7.232a1 1 0 0 1 .128 1.408L5.135 13H12a1 1 0 0 1 .992 1.124l-.577 4.616 2.817-3.38a1 1 0 0 1 1.536 1.28l-5 6a1 1 0 0 1-1.76-.764l.86-6.876H3a1 1 0 0 1-.768-1.64l5-6a1 1 0 0 1 1.408-.128Z" clip-rule="evenodd"/>
    <path fill="#464646" fill-rule="evenodd" d="M.293.293a1 1 0 0 1 1.414 0l22 22a1 1 0 0 1-1.414 1.414l-22-22a1 1 0 0 1 0-1.414Z" clip-rule="evenodd"/>
  </g>
  <defs>
    <clipPath id="a">
      <path fill="#fff" d="M0 0h24v24H0z"/>
    </clipPath>
  </defs>
</svg>
