<svg xmlns="http://www.w3.org/2000/svg" width="24" height="24" fill="none" viewBox="0 0 24 24">
  <path fill="#464646" fill-rule="evenodd" d="M4 4a1 1 0 0 0-1 1v10a1 1 0 0 0 1 1h1a1 1 0 1 1 0 2H4a3 3 0 0 1-3-3V5a3 3 0 0 1 3-3h16a3 3 0 0 1 3 3v10a3 3 0 0 1-3 3h-1a1 1 0 1 1 0-2h1a1 1 0 0 0 1-1V5a1 1 0 0 0-1-1H4Z" clip-rule="evenodd"/>
  <path fill="#464646" fill-rule="evenodd" d="M12 14a1 1 0 0 1 .768.36l5 6A1 1 0 0 1 17 22H7a1 1 0 0 1-.768-1.64l5-6A1 1 0 0 1 12 14Zm-2.865 6h5.73L12 16.562 9.135 20Z" clip-rule="evenodd"/>
</svg>
