<svg xmlns="http://www.w3.org/2000/svg" width="24" height="24" fill="none" viewBox="0 0 24 24">
  <path fill="#464646" fill-rule="evenodd" d="M4 5a1 1 0 0 0-1 1v2a1 1 0 1 1-2 0V6a3 3 0 0 1 3-3h16a3 3 0 0 1 3 3v12a3 3 0 0 1-3 3h-6a1 1 0 1 1 0-2h6a1 1 0 0 0 1-1V6a1 1 0 0 0-1-1H4Zm-2.994 6.94a1 1 0 0 1 1.104-.884 10 10 0 0 1 8.834 8.834 1 1 0 1 1-1.988.22 8 8 0 0 0-7.067-7.066 1 1 0 0 1-.883-1.104Zm.014 3.96a1 1 0 0 1 1.18-.78 6 6 0 0 1 4.68 4.68 1 1 0 1 1-1.96.4 4 4 0 0 0-3.12-3.12 1 1 0 0 1-.78-1.18ZM1 20a1 1 0 0 1 1-1h.01a1 1 0 1 1 0 2H2a1 1 0 0 1-1-1Z" clip-rule="evenodd"/>
</svg>
