<svg xmlns="http://www.w3.org/2000/svg" width="24" height="24" fill="none" viewBox="0 0 24 24">
  <path fill="#464646" fill-rule="evenodd" d="M4.18 3A1.18 1.18 0 0 0 3 4.18v15.64c0 .652.528 1.18 1.18 1.18h15.64A1.18 1.18 0 0 0 21 19.82V4.18A1.18 1.18 0 0 0 19.82 3H4.18ZM1 4.18A3.18 3.18 0 0 1 4.18 1h15.64A3.18 3.18 0 0 1 23 4.18v15.64A3.18 3.18 0 0 1 19.82 23H4.18A3.18 3.18 0 0 1 1 19.82V4.18Z" clip-rule="evenodd"/>
  <path fill="#464646" fill-rule="evenodd" d="M7 1a1 1 0 0 1 1 1v20a1 1 0 1 1-2 0V2a1 1 0 0 1 1-1Zm10 0a1 1 0 0 1 1 1v20a1 1 0 1 1-2 0V2a1 1 0 0 1 1-1Z" clip-rule="evenodd"/>
  <path fill="#464646" fill-rule="evenodd" d="M1 12a1 1 0 0 1 1-1h20a1 1 0 1 1 0 2H2a1 1 0 0 1-1-1Zm0-5a1 1 0 0 1 1-1h5a1 1 0 0 1 0 2H2a1 1 0 0 1-1-1Zm0 10a1 1 0 0 1 1-1h5a1 1 0 1 1 0 2H2a1 1 0 0 1-1-1Zm15 0a1 1 0 0 1 1-1h5a1 1 0 1 1 0 2h-5a1 1 0 0 1-1-1Zm0-10a1 1 0 0 1 1-1h5a1 1 0 1 1 0 2h-5a1 1 0 0 1-1-1Z" clip-rule="evenodd"/>
</svg>
