<svg xmlns="http://www.w3.org/2000/svg" width="24" height="24" fill="none" viewBox="0 0 24 24">
  <path fill="#464646" fill-rule="evenodd" d="M4 8a1 1 0 0 0-1 1v11a1 1 0 0 0 1 1h16a1 1 0 0 0 1-1V9a1 1 0 0 0-1-1H4ZM1 9a3 3 0 0 1 3-3h16a3 3 0 0 1 3 3v11a3 3 0 0 1-3 3H4a3 3 0 0 1-3-3V9Z" clip-rule="evenodd"/>
  <path fill="#464646" fill-rule="evenodd" d="M6.293 1.293a1 1 0 0 1 1.414 0L12 5.586l4.293-4.293a1 1 0 1 1 1.414 1.414l-5 5a1 1 0 0 1-1.414 0l-5-5a1 1 0 0 1 0-1.414Z" clip-rule="evenodd"/>
</svg>
