<svg xmlns="http://www.w3.org/2000/svg" width="24" height="24" fill="none" viewBox="0 0 24 24">
  <path fill="#464646" fill-rule="evenodd" d="M11 10a1 1 0 0 0-1 1v9a1 1 0 0 0 1 1h9a1 1 0 0 0 1-1v-9a1 1 0 0 0-1-1h-9Zm-3 1a3 3 0 0 1 3-3h9a3 3 0 0 1 3 3v9a3 3 0 0 1-3 3h-9a3 3 0 0 1-3-3v-9Z" clip-rule="evenodd"/>
  <path fill="#464646" fill-rule="evenodd" d="M4 3a1 1 0 0 0-1 1v9a1 1 0 0 0 1 1h1a1 1 0 1 1 0 2H4a3 3 0 0 1-3-3V4a3 3 0 0 1 3-3h9a3 3 0 0 1 3 3v1a1 1 0 1 1-2 0V4a1 1 0 0 0-1-1H4Z" clip-rule="evenodd"/>
</svg>
