<svg xmlns="http://www.w3.org/2000/svg" width="24" height="24" fill="none" viewBox="0 0 24 24">
  <path fill="#464646" fill-rule="evenodd" d="M5 4a1 1 0 0 0-1 1v14a1 1 0 0 0 1 1h14a1 1 0 0 0 1-1V8.414L15.586 4H5ZM2.879 2.879A3 3 0 0 1 5 2h11a1 1 0 0 1 .707.293l5 5A1 1 0 0 1 22 8v11a3 3 0 0 1-3 3H5a3 3 0 0 1-3-3V5a3 3 0 0 1 .879-2.121Z" clip-rule="evenodd"/>
  <path fill="#464646" fill-rule="evenodd" d="M6 13a1 1 0 0 1 1-1h10a1 1 0 0 1 1 1v8a1 1 0 1 1-2 0v-7H8v7a1 1 0 1 1-2 0v-8ZM7 2a1 1 0 0 1 1 1v4h7a1 1 0 1 1 0 2H7a1 1 0 0 1-1-1V3a1 1 0 0 1 1-1Z" clip-rule="evenodd"/>
</svg>
