<svg xmlns="http://www.w3.org/2000/svg" width="24" height="24" fill="none" viewBox="0 0 24 24">
  <path fill="#464646" fill-rule="evenodd" d="M1.464 15.464A5 5 0 0 1 5 14h7a5 5 0 0 1 5 5v2a1 1 0 1 1-2 0v-2a3 3 0 0 0-3-3H5a3 3 0 0 0-3 3v2a1 1 0 1 1-2 0v-2a5 5 0 0 1 1.464-3.536ZM8.5 4a3 3 0 1 0 0 6 3 3 0 0 0 0-6Zm-5 3a5 5 0 1 1 10 0 5 5 0 0 1-10 0Zm13.793.293a1 1 0 0 1 1.414 0l5 5a1 1 0 0 1-1.414 1.414l-5-5a1 1 0 0 1 0-1.414Z" clip-rule="evenodd"/>
  <path fill="#464646" fill-rule="evenodd" d="M23.707 7.293a1 1 0 0 1 0 1.414l-5 5a1 1 0 0 1-1.414-1.414l5-5a1 1 0 0 1 1.414 0Z" clip-rule="evenodd"/>
</svg>
