<svg xmlns="http://www.w3.org/2000/svg" width="24" height="24" fill="none" viewBox="0 0 24 24">
  <g clip-path="url(#a)">
    <path fill="#464646" fill-rule="evenodd" d="M9.768 20.135a1 1 0 0 1 1.367.363 1 1 0 0 0 1.73 0 1 1 0 0 1 1.73 1.004 3 3 0 0 1-5.19 0 1 1 0 0 1 .363-1.367ZM18.016 7A1 1 0 0 1 19 8.016a16.893 16.893 0 0 0 .595 4.72 1 1 0 1 1-1.93.527A18.89 18.89 0 0 1 17 7.985 1 1 0 0 1 18.016 7ZM6.555 5.305a1 1 0 0 1 .66 1.25A4.86 4.86 0 0 0 7 7.998V8c0 3.648-.783 6.066-1.622 7.604-.076.14-.153.272-.229.396H17a1 1 0 0 1 0 2H3a1 1 0 0 1-.563-1.826 3.037 3.037 0 0 0 .306-.283c.224-.237.547-.636.88-1.245C4.282 13.436 5 11.354 5 8.002M2.444 16.17Z" clip-rule="evenodd"/>
    <path fill="#464646" fill-rule="evenodd" d="M11.663 1A7 7 0 0 1 19 8.001a1 1 0 1 1-2-.003 5 5 0 0 0-7.775-4.167 1 1 0 0 1-1.11-1.664A7 7 0 0 1 11.663 1ZM.293.293a1 1 0 0 1 1.414 0l22 22a1 1 0 0 1-1.414 1.414l-22-22a1 1 0 0 1 0-1.414Z" clip-rule="evenodd"/>
  </g>
  <defs>
    <clipPath id="a">
      <path fill="#fff" d="M0 0h24v24H0z"/>
    </clipPath>
  </defs>
</svg>
